<svg xmlns="http://www.w3.org/2000/svg" xmlns:xlink="http://www.w3.org/1999/xlink" width="500" zoomAndPan="magnify" viewBox="0 0 375 374.999991" height="500" preserveAspectRatio="xMidYMid meet" version="1.0"><defs><clipPath id="0922ac9824"><path d="M 26.492188 237.105469 L 48.242188 237.105469 L 48.242188 258.855469 L 26.492188 258.855469 Z M 26.492188 237.105469 " clip-rule="nonzero"/></clipPath></defs><g clip-path="url(#0922ac9824)"><path fill="#000000" d="M 44.832031 258.855469 L 29.902344 258.855469 C 29.449219 258.855469 29.015625 258.769531 28.597656 258.597656 C 28.179688 258.421875 27.8125 258.175781 27.492188 257.855469 C 27.171875 257.539062 26.925781 257.167969 26.753906 256.753906 C 26.578125 256.335938 26.492188 255.902344 26.492188 255.449219 L 26.492188 240.515625 C 26.492188 240.0625 26.578125 239.628906 26.753906 239.210938 C 26.925781 238.792969 27.171875 238.425781 27.492188 238.105469 C 27.8125 237.789062 28.179688 237.542969 28.597656 237.367188 C 29.015625 237.195312 29.449219 237.109375 29.902344 237.105469 L 44.832031 237.105469 C 45.285156 237.109375 45.71875 237.195312 46.136719 237.367188 C 46.554688 237.542969 46.921875 237.789062 47.242188 238.105469 C 47.5625 238.425781 47.808594 238.792969 47.980469 239.210938 C 48.15625 239.628906 48.242188 240.0625 48.242188 240.515625 L 48.242188 255.449219 C 48.242188 255.902344 48.15625 256.335938 47.980469 256.753906 C 47.808594 257.167969 47.5625 257.539062 47.242188 257.855469 C 46.921875 258.175781 46.554688 258.421875 46.136719 258.597656 C 45.71875 258.769531 45.285156 258.855469 44.832031 258.855469 Z M 29.902344 237.582031 C 29.511719 237.582031 29.136719 237.65625 28.777344 237.804688 C 28.417969 237.957031 28.101562 238.167969 27.828125 238.441406 C 27.550781 238.71875 27.339844 239.035156 27.191406 239.394531 C 27.042969 239.753906 26.96875 240.125 26.96875 240.515625 L 26.96875 255.449219 C 26.96875 255.835938 27.042969 256.210938 27.191406 256.570312 C 27.339844 256.929688 27.550781 257.246094 27.828125 257.523438 C 28.101562 257.796875 28.417969 258.007812 28.777344 258.15625 C 29.136719 258.308594 29.511719 258.382812 29.902344 258.382812 L 44.832031 258.382812 C 45.222656 258.382812 45.597656 258.308594 45.957031 258.15625 C 46.316406 258.007812 46.632812 257.796875 46.90625 257.523438 C 47.183594 257.246094 47.394531 256.929688 47.542969 256.570312 C 47.691406 256.210938 47.765625 255.835938 47.765625 255.449219 L 47.765625 240.515625 C 47.765625 240.125 47.691406 239.753906 47.542969 239.394531 C 47.394531 239.035156 47.183594 238.71875 46.90625 238.441406 C 46.632812 238.167969 46.316406 237.957031 45.957031 237.804688 C 45.597656 237.65625 45.222656 237.582031 44.832031 237.582031 Z M 29.902344 237.582031 " fill-opacity="1" fill-rule="nonzero"/></g><path fill="#000000" d="M 44.832031 257.1875 L 29.902344 257.1875 C 29.671875 257.1875 29.449219 257.144531 29.234375 257.054688 C 29.023438 256.96875 28.832031 256.84375 28.671875 256.679688 C 28.507812 256.515625 28.382812 256.328125 28.292969 256.113281 C 28.207031 255.902344 28.160156 255.679688 28.160156 255.449219 L 28.160156 240.515625 C 28.160156 240.285156 28.207031 240.0625 28.292969 239.851562 C 28.382812 239.636719 28.507812 239.449219 28.671875 239.285156 C 28.832031 239.121094 29.023438 238.996094 29.234375 238.910156 C 29.449219 238.820312 29.671875 238.777344 29.902344 238.777344 L 44.832031 238.777344 C 45.066406 238.777344 45.285156 238.820312 45.5 238.910156 C 45.710938 238.996094 45.902344 239.121094 46.0625 239.285156 C 46.226562 239.449219 46.351562 239.636719 46.441406 239.851562 C 46.53125 240.0625 46.574219 240.285156 46.574219 240.515625 L 46.574219 255.449219 C 46.574219 255.679688 46.53125 255.902344 46.441406 256.113281 C 46.351562 256.328125 46.226562 256.515625 46.0625 256.679688 C 45.902344 256.84375 45.710938 256.96875 45.5 257.054688 C 45.285156 257.144531 45.066406 257.1875 44.832031 257.1875 Z M 29.902344 239.25 C 29.734375 239.25 29.570312 239.28125 29.417969 239.347656 C 29.261719 239.410156 29.125 239.503906 29.007812 239.621094 C 28.886719 239.738281 28.796875 239.875 28.730469 240.03125 C 28.667969 240.1875 28.636719 240.347656 28.636719 240.515625 L 28.636719 255.449219 C 28.636719 255.617188 28.667969 255.777344 28.730469 255.933594 C 28.796875 256.085938 28.886719 256.222656 29.007812 256.34375 C 29.125 256.460938 29.261719 256.554688 29.417969 256.617188 C 29.570312 256.683594 29.734375 256.714844 29.902344 256.714844 L 44.832031 256.714844 C 45 256.714844 45.164062 256.683594 45.316406 256.617188 C 45.472656 256.554688 45.609375 256.460938 45.726562 256.34375 C 45.847656 256.222656 45.9375 256.085938 46.003906 255.933594 C 46.066406 255.777344 46.097656 255.617188 46.097656 255.449219 L 46.097656 240.515625 C 46.097656 240.347656 46.066406 240.1875 46.003906 240.03125 C 45.9375 239.875 45.847656 239.738281 45.726562 239.621094 C 45.609375 239.503906 45.472656 239.410156 45.316406 239.347656 C 45.164062 239.28125 45 239.25 44.832031 239.25 Z M 29.902344 239.25 " fill-opacity="1" fill-rule="nonzero"/><path fill="#000000" d="M 32.105469 255.574219 L 31.472656 255.574219 C 31.207031 255.574219 30.976562 255.480469 30.789062 255.292969 C 30.601562 255.101562 30.507812 254.875 30.503906 254.609375 L 30.503906 245.597656 C 30.507812 245.332031 30.601562 245.101562 30.789062 244.914062 C 30.976562 244.726562 31.207031 244.632812 31.472656 244.632812 L 32.105469 244.632812 C 32.371094 244.632812 32.597656 244.726562 32.785156 244.914062 C 32.976562 245.105469 33.070312 245.332031 33.070312 245.597656 L 33.070312 254.609375 C 33.070312 254.875 32.976562 255.101562 32.785156 255.292969 C 32.597656 255.480469 32.371094 255.574219 32.105469 255.574219 Z M 31.472656 245.105469 C 31.335938 245.109375 31.222656 245.15625 31.125 245.25 C 31.03125 245.347656 30.980469 245.460938 30.980469 245.597656 L 30.980469 254.609375 C 30.980469 254.746094 31.027344 254.859375 31.125 254.957031 C 31.222656 255.050781 31.335938 255.101562 31.472656 255.101562 L 32.105469 255.101562 C 32.238281 255.101562 32.355469 255.050781 32.453125 254.957031 C 32.546875 254.859375 32.59375 254.746094 32.59375 254.609375 L 32.59375 245.597656 C 32.59375 245.460938 32.546875 245.347656 32.453125 245.25 C 32.355469 245.15625 32.238281 245.105469 32.105469 245.105469 Z M 31.472656 245.105469 " fill-opacity="1" fill-rule="nonzero"/><path fill="#000000" d="M 43.570312 255.574219 L 42.941406 255.574219 C 42.671875 255.574219 42.445312 255.480469 42.257812 255.292969 C 42.066406 255.101562 41.972656 254.875 41.972656 254.609375 L 41.972656 251.039062 C 41.972656 250.972656 41.972656 250.90625 41.96875 250.839844 C 41.867188 249.378906 40.75 248.761719 39.683594 248.796875 C 38.632812 248.835938 37.5 249.550781 37.5 251.035156 L 37.5 254.609375 C 37.5 254.875 37.40625 255.101562 37.21875 255.289062 C 37.027344 255.480469 36.800781 255.574219 36.535156 255.574219 L 35.902344 255.574219 C 35.636719 255.574219 35.410156 255.480469 35.21875 255.289062 C 35.03125 255.101562 34.9375 254.875 34.9375 254.609375 L 34.9375 245.597656 C 34.9375 245.332031 35.03125 245.105469 35.21875 244.914062 C 35.410156 244.726562 35.636719 244.632812 35.902344 244.632812 L 36.535156 244.632812 C 36.800781 244.632812 37.027344 244.726562 37.21875 244.914062 C 37.40625 245.105469 37.5 245.332031 37.5 245.597656 L 37.5 245.988281 C 38.027344 245.761719 38.578125 245.652344 39.152344 245.648438 C 39.503906 245.652344 39.855469 245.683594 40.203125 245.753906 C 40.546875 245.824219 40.886719 245.925781 41.210938 246.0625 C 41.539062 246.199219 41.847656 246.363281 42.140625 246.558594 C 42.4375 246.757812 42.707031 246.980469 42.957031 247.230469 C 43.207031 247.480469 43.433594 247.75 43.628906 248.046875 C 43.824219 248.339844 43.992188 248.648438 44.125 248.976562 C 44.261719 249.304688 44.363281 249.640625 44.433594 249.988281 C 44.503906 250.332031 44.539062 250.683594 44.539062 251.039062 L 44.539062 254.609375 C 44.539062 254.875 44.441406 255.101562 44.253906 255.292969 C 44.066406 255.480469 43.839844 255.574219 43.570312 255.574219 Z M 39.769531 248.324219 C 40.992188 248.324219 42.320312 249.089844 42.441406 250.808594 C 42.445312 250.882812 42.449219 250.960938 42.449219 251.039062 L 42.449219 254.609375 C 42.449219 254.746094 42.496094 254.859375 42.59375 254.957031 C 42.6875 255.050781 42.804688 255.101562 42.941406 255.101562 L 43.570312 255.101562 C 43.707031 255.101562 43.824219 255.050781 43.917969 254.957031 C 44.015625 254.859375 44.0625 254.746094 44.0625 254.609375 L 44.0625 251.039062 C 44.0625 250.714844 44.03125 250.394531 43.96875 250.078125 C 43.90625 249.761719 43.8125 249.457031 43.6875 249.160156 C 43.5625 248.859375 43.414062 248.578125 43.234375 248.308594 C 43.054688 248.042969 42.851562 247.792969 42.621094 247.566406 C 42.394531 247.335938 42.148438 247.132812 41.878906 246.953125 C 41.609375 246.777344 41.328125 246.625 41.03125 246.5 C 40.730469 246.378906 40.425781 246.285156 40.109375 246.21875 C 39.792969 246.15625 39.472656 246.125 39.152344 246.125 C 38.523438 246.125 37.929688 246.273438 37.375 246.574219 C 37.296875 246.617188 37.21875 246.613281 37.140625 246.570312 C 37.066406 246.523438 37.027344 246.457031 37.027344 246.367188 L 37.027344 245.597656 C 37.027344 245.460938 36.976562 245.347656 36.882812 245.25 C 36.785156 245.15625 36.671875 245.105469 36.535156 245.105469 L 35.902344 245.105469 C 35.765625 245.105469 35.652344 245.15625 35.554688 245.25 C 35.460938 245.347656 35.410156 245.460938 35.410156 245.597656 L 35.410156 254.609375 C 35.410156 254.746094 35.460938 254.859375 35.554688 254.957031 C 35.652344 255.050781 35.765625 255.101562 35.902344 255.101562 L 36.535156 255.101562 C 36.671875 255.101562 36.785156 255.050781 36.882812 254.957031 C 36.976562 254.859375 37.027344 254.746094 37.027344 254.609375 L 37.027344 251.039062 C 37.027344 250.230469 37.3125 249.542969 37.851562 249.042969 C 38.371094 248.582031 38.976562 248.339844 39.667969 248.324219 C 39.703125 248.324219 39.734375 248.324219 39.769531 248.324219 Z M 39.769531 248.324219 " fill-opacity="1" fill-rule="nonzero"/><path fill="#000000" d="M 31.789062 243.574219 C 31.578125 243.574219 31.375 243.53125 31.179688 243.449219 C 30.984375 243.371094 30.8125 243.253906 30.664062 243.105469 C 30.511719 242.957031 30.398438 242.785156 30.316406 242.589844 C 30.238281 242.394531 30.195312 242.191406 30.195312 241.980469 C 30.195312 241.769531 30.238281 241.566406 30.316406 241.371094 C 30.398438 241.175781 30.511719 241.003906 30.664062 240.855469 C 30.8125 240.707031 30.984375 240.589844 31.179688 240.511719 C 31.375 240.429688 31.578125 240.390625 31.789062 240.390625 C 32 240.390625 32.203125 240.429688 32.398438 240.511719 C 32.59375 240.589844 32.765625 240.707031 32.914062 240.855469 C 33.0625 241.003906 33.179688 241.175781 33.257812 241.371094 C 33.339844 241.566406 33.378906 241.769531 33.378906 241.980469 C 33.378906 242.191406 33.339844 242.394531 33.257812 242.589844 C 33.175781 242.785156 33.0625 242.957031 32.914062 243.105469 C 32.765625 243.253906 32.59375 243.371094 32.398438 243.449219 C 32.203125 243.53125 32 243.570312 31.789062 243.574219 Z M 31.789062 240.863281 C 31.640625 240.863281 31.496094 240.890625 31.359375 240.949219 C 31.222656 241.003906 31.101562 241.085938 31 241.191406 C 30.894531 241.296875 30.8125 241.417969 30.757812 241.554688 C 30.699219 241.691406 30.671875 241.832031 30.671875 241.980469 C 30.671875 242.128906 30.699219 242.269531 30.757812 242.40625 C 30.8125 242.542969 30.894531 242.664062 31 242.769531 C 31.101562 242.875 31.222656 242.957031 31.359375 243.011719 C 31.496094 243.070312 31.640625 243.097656 31.789062 243.097656 C 31.9375 243.097656 32.078125 243.070312 32.214844 243.011719 C 32.351562 242.957031 32.472656 242.875 32.578125 242.769531 C 32.683594 242.664062 32.761719 242.542969 32.820312 242.40625 C 32.875 242.269531 32.90625 242.128906 32.90625 241.980469 C 32.90625 241.832031 32.875 241.691406 32.820312 241.554688 C 32.761719 241.417969 32.683594 241.296875 32.578125 241.191406 C 32.472656 241.085938 32.351562 241.007812 32.214844 240.949219 C 32.078125 240.890625 31.9375 240.863281 31.789062 240.863281 Z M 31.789062 240.863281 " fill-opacity="1" fill-rule="nonzero"/><path fill="#000000" d="M 375.007812 187.5 C 375.007812 190.570312 374.933594 193.636719 374.78125 196.699219 C 374.632812 199.765625 374.40625 202.824219 374.105469 205.878906 C 373.804688 208.933594 373.429688 211.976562 372.980469 215.011719 C 372.527344 218.046875 372.003906 221.070312 371.40625 224.078125 C 370.808594 227.089844 370.136719 230.082031 369.390625 233.058594 C 368.644531 236.035156 367.824219 238.992188 366.933594 241.929688 C 366.042969 244.863281 365.082031 247.777344 364.046875 250.667969 C 363.015625 253.554688 361.910156 256.417969 360.734375 259.253906 C 359.5625 262.089844 358.320312 264.890625 357.007812 267.667969 C 355.695312 270.441406 354.316406 273.179688 352.867188 275.886719 C 351.421875 278.59375 349.910156 281.261719 348.332031 283.894531 C 346.753906 286.527344 345.113281 289.117188 343.410156 291.667969 C 341.703125 294.222656 339.9375 296.730469 338.109375 299.195312 C 336.28125 301.660156 334.394531 304.078125 332.449219 306.449219 C 330.5 308.820312 328.496094 311.144531 326.4375 313.417969 C 324.375 315.691406 322.261719 317.914062 320.089844 320.082031 C 317.921875 322.253906 315.699219 324.367188 313.425781 326.429688 C 311.152344 328.488281 308.828125 330.492188 306.457031 332.4375 C 304.085938 334.386719 301.667969 336.273438 299.203125 338.101562 C 296.738281 339.929688 294.230469 341.695312 291.679688 343.402344 C 289.125 345.105469 286.535156 346.746094 283.902344 348.324219 C 281.269531 349.902344 278.601562 351.414062 275.894531 352.859375 C 273.1875 354.308594 270.449219 355.6875 267.675781 356.996094 C 264.902344 358.308594 262.097656 359.554688 259.261719 360.726562 C 256.425781 361.902344 253.566406 363.003906 250.675781 364.039062 C 247.785156 365.074219 244.875 366.035156 241.9375 366.925781 C 239 367.816406 236.042969 368.636719 233.066406 369.378906 C 230.089844 370.125 227.097656 370.796875 224.089844 371.398438 C 221.078125 371.996094 218.054688 372.519531 215.019531 372.96875 C 211.984375 373.421875 208.941406 373.796875 205.886719 374.097656 C 202.832031 374.398438 199.773438 374.625 196.707031 374.773438 C 193.644531 374.925781 190.578125 375 187.507812 375 C 184.441406 375 181.375 374.925781 178.308594 374.773438 C 175.242188 374.625 172.183594 374.398438 169.128906 374.097656 C 166.078125 373.796875 163.03125 373.421875 159.996094 372.96875 C 156.960938 372.519531 153.9375 371.996094 150.929688 371.398438 C 147.917969 370.796875 144.925781 370.125 141.949219 369.378906 C 138.972656 368.636719 136.015625 367.816406 133.082031 366.925781 C 130.144531 366.035156 127.230469 365.074219 124.339844 364.039062 C 121.453125 363.003906 118.589844 361.902344 115.753906 360.726562 C 112.921875 359.554688 110.117188 358.308594 107.34375 356.996094 C 104.566406 355.6875 101.828125 354.308594 99.121094 352.859375 C 96.414062 351.414062 93.746094 349.902344 91.113281 348.324219 C 88.480469 346.746094 85.890625 345.105469 83.339844 343.402344 C 80.789062 341.695312 78.28125 339.929688 75.816406 338.101562 C 73.351562 336.273438 70.933594 334.386719 68.558594 332.4375 C 66.1875 330.492188 63.863281 328.488281 61.589844 326.429688 C 59.316406 324.367188 57.097656 322.253906 54.925781 320.082031 C 52.757812 317.914062 50.640625 315.691406 48.582031 313.417969 C 46.519531 311.144531 44.515625 308.820312 42.570312 306.449219 C 40.621094 304.078125 38.734375 301.660156 36.90625 299.195312 C 35.078125 296.730469 33.3125 294.222656 31.609375 291.667969 C 29.902344 289.117188 28.261719 286.527344 26.683594 283.894531 C 25.105469 281.261719 23.59375 278.59375 22.148438 275.886719 C 20.703125 273.179688 19.324219 270.441406 18.011719 267.667969 C 16.699219 264.890625 15.457031 262.089844 14.28125 259.253906 C 13.105469 256.417969 12.003906 253.554688 10.96875 250.667969 C 9.933594 247.777344 8.972656 244.863281 8.082031 241.929688 C 7.191406 238.992188 6.375 236.035156 5.628906 233.058594 C 4.882812 230.082031 4.210938 227.089844 3.613281 224.078125 C 3.011719 221.070312 2.488281 218.046875 2.039062 215.011719 C 1.585938 211.976562 1.210938 208.933594 0.910156 205.878906 C 0.609375 202.824219 0.386719 199.765625 0.234375 196.699219 C 0.0820312 193.636719 0.0078125 190.570312 0.0078125 187.5 C 0.0078125 184.429688 0.0820312 181.363281 0.234375 178.300781 C 0.386719 175.234375 0.609375 172.175781 0.910156 169.121094 C 1.210938 166.066406 1.585938 163.023438 2.039062 159.988281 C 2.488281 156.953125 3.011719 153.929688 3.613281 150.921875 C 4.210938 147.910156 4.882812 144.917969 5.628906 141.941406 C 6.375 138.964844 7.191406 136.007812 8.082031 133.070312 C 8.972656 130.136719 9.933594 127.222656 10.96875 124.332031 C 12.003906 121.445312 13.105469 118.582031 14.28125 115.746094 C 15.457031 112.910156 16.699219 110.105469 18.011719 107.332031 C 19.324219 104.558594 20.703125 101.820312 22.148438 99.113281 C 23.59375 96.40625 25.105469 93.738281 26.683594 91.105469 C 28.261719 88.472656 29.902344 85.882812 31.609375 83.332031 C 33.3125 80.777344 35.078125 78.269531 36.90625 75.804688 C 38.734375 73.339844 40.621094 70.921875 42.570312 68.550781 C 44.515625 66.179688 46.519531 63.855469 48.582031 61.582031 C 50.640625 59.308594 52.757812 57.085938 54.925781 54.917969 C 57.097656 52.746094 59.316406 50.632812 61.589844 48.570312 C 63.863281 46.511719 66.1875 44.507812 68.558594 42.558594 C 70.933594 40.613281 73.351562 38.726562 75.816406 36.898438 C 78.28125 35.070312 80.789062 33.304688 83.339844 31.597656 C 85.890625 29.894531 88.480469 28.253906 91.113281 26.675781 C 93.746094 25.097656 96.414062 23.585938 99.121094 22.140625 C 101.828125 20.691406 104.566406 19.3125 107.34375 18.003906 C 110.117188 16.691406 112.921875 15.445312 115.753906 14.273438 C 118.589844 13.097656 121.453125 11.996094 124.339844 10.960938 C 127.230469 9.925781 130.144531 8.964844 133.082031 8.074219 C 136.015625 7.183594 138.972656 6.363281 141.949219 5.621094 C 144.925781 4.875 147.917969 4.203125 150.929688 3.601562 C 153.9375 3.003906 156.960938 2.480469 159.996094 2.03125 C 163.03125 1.578125 166.078125 1.203125 169.128906 0.902344 C 172.183594 0.601562 175.242188 0.375 178.308594 0.226562 C 181.375 0.0742188 184.441406 0 187.507812 0 C 190.578125 0 193.644531 0.0742188 196.707031 0.226562 C 199.773438 0.375 202.832031 0.601562 205.886719 0.902344 C 208.941406 1.203125 211.984375 1.578125 215.019531 2.03125 C 218.054688 2.480469 221.078125 3.003906 224.089844 3.601562 C 227.097656 4.203125 230.089844 4.875 233.066406 5.617188 C 236.042969 6.363281 239 7.183594 241.9375 8.074219 C 244.875 8.964844 247.785156 9.925781 250.675781 10.960938 C 253.566406 11.996094 256.425781 13.097656 259.261719 14.273438 C 262.097656 15.445312 264.902344 16.691406 267.675781 18.003906 C 270.449219 19.3125 273.1875 20.691406 275.894531 22.140625 C 278.601562 23.585938 281.269531 25.097656 283.902344 26.675781 C 286.535156 28.253906 289.125 29.894531 291.679688 31.597656 C 294.230469 33.304688 296.738281 35.070312 299.203125 36.898438 C 301.667969 38.726562 304.085938 40.613281 306.457031 42.558594 C 308.828125 44.507812 311.152344 46.511719 313.425781 48.570312 C 315.699219 50.632812 317.921875 52.746094 320.089844 54.917969 C 322.261719 57.085938 324.375 59.308594 326.4375 61.582031 C 328.496094 63.855469 330.5 66.179688 332.449219 68.550781 C 334.394531 70.921875 336.28125 73.339844 338.109375 75.804688 C 339.9375 78.269531 341.703125 80.777344 343.410156 83.332031 C 345.113281 85.882812 346.753906 88.472656 348.332031 91.105469 C 349.910156 93.738281 351.421875 96.40625 352.867188 99.113281 C 354.316406 101.820312 355.695312 104.558594 357.007812 107.332031 C 358.320312 110.105469 359.5625 112.910156 360.734375 115.746094 C 361.910156 118.582031 363.015625 121.445312 364.046875 124.332031 C 365.082031 127.222656 366.042969 130.136719 366.933594 133.070312 C 367.824219 136.007812 368.644531 138.964844 369.390625 141.941406 C 370.136719 144.917969 370.808594 147.910156 371.40625 150.921875 C 372.003906 153.929688 372.527344 156.953125 372.980469 159.988281 C 373.429688 163.023438 373.804688 166.066406 374.105469 169.121094 C 374.40625 172.175781 374.632812 175.234375 374.78125 178.300781 C 374.933594 181.363281 375.007812 184.429688 375.007812 187.5 Z M 375.007812 187.5 " fill-opacity="1" fill-rule="nonzero"/><path fill="#ffffff" d="M 75.183594 119.160156 C 77.089844 117.894531 79.375 117.160156 81.832031 117.160156 L 292.074219 117.160156 C 294.828125 117.160156 297.367188 118.085938 299.398438 119.640625 L 187.023438 180.632812 Z M 302.695312 251.503906 C 303.617188 249.796875 304.140625 247.847656 304.140625 245.773438 L 304.140625 130.707031 L 234.8125 167.671875 Z M 69.765625 129.878906 L 69.765625 245.773438 C 69.765625 246.839844 69.90625 247.871094 70.164062 248.855469 L 139.226562 167.675781 Z M 224 173.730469 L 189.972656 192.8125 C 189.058594 193.328125 188.039062 193.585938 187.023438 193.585938 C 186.003906 193.585938 184.988281 193.328125 184.074219 192.8125 L 150.039062 173.738281 L 78.714844 257.433594 C 79.710938 257.699219 80.753906 257.839844 81.832031 257.839844 L 292.074219 257.839844 C 292.148438 257.839844 292.226562 257.835938 292.304688 257.835938 Z M 224 173.730469 " fill-opacity="1" fill-rule="nonzero"/></svg>