<svg xmlns="http://www.w3.org/2000/svg" xmlns:xlink="http://www.w3.org/1999/xlink" width="500" zoomAndPan="magnify" viewBox="0 0 375 374.999991" height="500" preserveAspectRatio="xMidYMid meet" version="1.0"><defs><clipPath id="2da3a8c812"><path d="M 187.5 0 C 83.945312 0 0 83.945312 0 187.5 C 0 291.054688 83.945312 375 187.5 375 C 291.054688 375 375 291.054688 375 187.5 C 375 83.945312 291.054688 0 187.5 0 Z M 187.5 0 " clip-rule="nonzero"/></clipPath><clipPath id="28a7307fac"><path d="M 26.492188 237.105469 L 48.242188 237.105469 L 48.242188 258.855469 L 26.492188 258.855469 Z M 26.492188 237.105469 " clip-rule="nonzero"/></clipPath><clipPath id="c7bf4a594a"><path d="M 26.546875 60.949219 L 331.371094 60.949219 L 331.371094 313.699219 L 26.546875 313.699219 Z M 26.546875 60.949219 " clip-rule="nonzero"/></clipPath></defs><g clip-path="url(#2da3a8c812)"><rect x="-37.5" width="450" fill="#000000" y="-37.499999" height="449.999989" fill-opacity="1"/></g><g clip-path="url(#28a7307fac)"><path fill="#000000" d="M 44.832031 258.855469 L 29.902344 258.855469 C 29.449219 258.855469 29.015625 258.769531 28.597656 258.597656 C 28.179688 258.421875 27.8125 258.175781 27.492188 257.855469 C 27.171875 257.539062 26.925781 257.167969 26.753906 256.753906 C 26.578125 256.335938 26.492188 255.902344 26.492188 255.449219 L 26.492188 240.515625 C 26.492188 240.0625 26.578125 239.628906 26.753906 239.210938 C 26.925781 238.792969 27.171875 238.425781 27.492188 238.105469 C 27.8125 237.789062 28.179688 237.542969 28.597656 237.367188 C 29.015625 237.195312 29.449219 237.109375 29.902344 237.105469 L 44.832031 237.105469 C 45.285156 237.109375 45.71875 237.195312 46.136719 237.367188 C 46.554688 237.542969 46.921875 237.789062 47.242188 238.105469 C 47.5625 238.425781 47.808594 238.792969 47.980469 239.210938 C 48.15625 239.628906 48.242188 240.0625 48.242188 240.515625 L 48.242188 255.449219 C 48.242188 255.902344 48.15625 256.335938 47.980469 256.753906 C 47.808594 257.167969 47.5625 257.539062 47.242188 257.855469 C 46.921875 258.175781 46.554688 258.421875 46.136719 258.597656 C 45.71875 258.769531 45.285156 258.855469 44.832031 258.855469 Z M 29.902344 237.582031 C 29.511719 237.582031 29.136719 237.65625 28.777344 237.804688 C 28.417969 237.957031 28.101562 238.167969 27.828125 238.441406 C 27.550781 238.71875 27.339844 239.035156 27.191406 239.394531 C 27.042969 239.753906 26.96875 240.125 26.96875 240.515625 L 26.96875 255.449219 C 26.96875 255.835938 27.042969 256.210938 27.191406 256.570312 C 27.339844 256.929688 27.550781 257.246094 27.828125 257.523438 C 28.101562 257.796875 28.417969 258.007812 28.777344 258.15625 C 29.136719 258.308594 29.511719 258.382812 29.902344 258.382812 L 44.832031 258.382812 C 45.222656 258.382812 45.597656 258.308594 45.957031 258.15625 C 46.316406 258.007812 46.632812 257.796875 46.90625 257.523438 C 47.183594 257.246094 47.394531 256.929688 47.542969 256.570312 C 47.691406 256.210938 47.765625 255.835938 47.765625 255.449219 L 47.765625 240.515625 C 47.765625 240.125 47.691406 239.753906 47.542969 239.394531 C 47.394531 239.035156 47.183594 238.71875 46.90625 238.441406 C 46.632812 238.167969 46.316406 237.957031 45.957031 237.804688 C 45.597656 237.65625 45.222656 237.582031 44.832031 237.582031 Z M 29.902344 237.582031 " fill-opacity="1" fill-rule="nonzero"/></g><path fill="#000000" d="M 44.832031 257.1875 L 29.902344 257.1875 C 29.671875 257.1875 29.449219 257.144531 29.234375 257.054688 C 29.023438 256.96875 28.832031 256.84375 28.671875 256.679688 C 28.507812 256.515625 28.382812 256.328125 28.292969 256.113281 C 28.207031 255.902344 28.160156 255.679688 28.160156 255.449219 L 28.160156 240.515625 C 28.160156 240.285156 28.207031 240.0625 28.292969 239.851562 C 28.382812 239.636719 28.507812 239.449219 28.671875 239.285156 C 28.832031 239.121094 29.023438 238.996094 29.234375 238.910156 C 29.449219 238.820312 29.671875 238.777344 29.902344 238.777344 L 44.832031 238.777344 C 45.066406 238.777344 45.285156 238.820312 45.5 238.910156 C 45.710938 238.996094 45.902344 239.121094 46.0625 239.285156 C 46.226562 239.449219 46.351562 239.636719 46.441406 239.851562 C 46.53125 240.0625 46.574219 240.285156 46.574219 240.515625 L 46.574219 255.449219 C 46.574219 255.679688 46.53125 255.902344 46.441406 256.113281 C 46.351562 256.328125 46.226562 256.515625 46.0625 256.679688 C 45.902344 256.84375 45.710938 256.96875 45.5 257.054688 C 45.285156 257.144531 45.066406 257.1875 44.832031 257.1875 Z M 29.902344 239.25 C 29.734375 239.25 29.570312 239.28125 29.417969 239.347656 C 29.261719 239.410156 29.125 239.503906 29.007812 239.621094 C 28.886719 239.738281 28.796875 239.875 28.730469 240.03125 C 28.667969 240.1875 28.636719 240.347656 28.636719 240.515625 L 28.636719 255.449219 C 28.636719 255.617188 28.667969 255.777344 28.730469 255.933594 C 28.796875 256.085938 28.886719 256.222656 29.007812 256.34375 C 29.125 256.460938 29.261719 256.554688 29.417969 256.617188 C 29.570312 256.683594 29.734375 256.714844 29.902344 256.714844 L 44.832031 256.714844 C 45 256.714844 45.164062 256.683594 45.316406 256.617188 C 45.472656 256.554688 45.609375 256.460938 45.726562 256.34375 C 45.847656 256.222656 45.9375 256.085938 46.003906 255.933594 C 46.066406 255.777344 46.097656 255.617188 46.097656 255.449219 L 46.097656 240.515625 C 46.097656 240.347656 46.066406 240.1875 46.003906 240.03125 C 45.9375 239.875 45.847656 239.738281 45.726562 239.621094 C 45.609375 239.503906 45.472656 239.410156 45.316406 239.347656 C 45.164062 239.28125 45 239.25 44.832031 239.25 Z M 29.902344 239.25 " fill-opacity="1" fill-rule="nonzero"/><path fill="#000000" d="M 32.105469 255.574219 L 31.472656 255.574219 C 31.207031 255.574219 30.976562 255.480469 30.789062 255.292969 C 30.601562 255.101562 30.507812 254.875 30.503906 254.609375 L 30.503906 245.597656 C 30.507812 245.332031 30.601562 245.101562 30.789062 244.914062 C 30.976562 244.726562 31.207031 244.632812 31.472656 244.632812 L 32.105469 244.632812 C 32.371094 244.632812 32.597656 244.726562 32.785156 244.914062 C 32.976562 245.105469 33.070312 245.332031 33.070312 245.597656 L 33.070312 254.609375 C 33.070312 254.875 32.976562 255.101562 32.785156 255.292969 C 32.597656 255.480469 32.371094 255.574219 32.105469 255.574219 Z M 31.472656 245.105469 C 31.335938 245.109375 31.222656 245.15625 31.125 245.25 C 31.03125 245.347656 30.980469 245.460938 30.980469 245.597656 L 30.980469 254.609375 C 30.980469 254.746094 31.027344 254.859375 31.125 254.957031 C 31.222656 255.050781 31.335938 255.101562 31.472656 255.101562 L 32.105469 255.101562 C 32.238281 255.101562 32.355469 255.050781 32.453125 254.957031 C 32.546875 254.859375 32.59375 254.746094 32.59375 254.609375 L 32.59375 245.597656 C 32.59375 245.460938 32.546875 245.347656 32.453125 245.25 C 32.355469 245.15625 32.238281 245.105469 32.105469 245.105469 Z M 31.472656 245.105469 " fill-opacity="1" fill-rule="nonzero"/><path fill="#000000" d="M 43.570312 255.574219 L 42.941406 255.574219 C 42.671875 255.574219 42.445312 255.480469 42.257812 255.292969 C 42.066406 255.101562 41.972656 254.875 41.972656 254.609375 L 41.972656 251.039062 C 41.972656 250.972656 41.972656 250.90625 41.96875 250.839844 C 41.867188 249.378906 40.75 248.761719 39.683594 248.796875 C 38.632812 248.835938 37.5 249.550781 37.5 251.035156 L 37.5 254.609375 C 37.5 254.875 37.40625 255.101562 37.21875 255.289062 C 37.027344 255.480469 36.800781 255.574219 36.535156 255.574219 L 35.902344 255.574219 C 35.636719 255.574219 35.410156 255.480469 35.21875 255.289062 C 35.03125 255.101562 34.9375 254.875 34.9375 254.609375 L 34.9375 245.597656 C 34.9375 245.332031 35.03125 245.105469 35.21875 244.914062 C 35.410156 244.726562 35.636719 244.632812 35.902344 244.632812 L 36.535156 244.632812 C 36.800781 244.632812 37.027344 244.726562 37.21875 244.914062 C 37.40625 245.105469 37.5 245.332031 37.5 245.597656 L 37.5 245.988281 C 38.027344 245.761719 38.578125 245.652344 39.152344 245.648438 C 39.503906 245.652344 39.855469 245.683594 40.203125 245.753906 C 40.546875 245.824219 40.886719 245.925781 41.210938 246.0625 C 41.539062 246.199219 41.847656 246.363281 42.140625 246.558594 C 42.4375 246.757812 42.707031 246.980469 42.957031 247.230469 C 43.207031 247.480469 43.433594 247.75 43.628906 248.046875 C 43.824219 248.339844 43.992188 248.648438 44.125 248.976562 C 44.261719 249.304688 44.363281 249.640625 44.433594 249.988281 C 44.503906 250.332031 44.539062 250.683594 44.539062 251.039062 L 44.539062 254.609375 C 44.539062 254.875 44.441406 255.101562 44.253906 255.292969 C 44.066406 255.480469 43.839844 255.574219 43.570312 255.574219 Z M 39.769531 248.324219 C 40.992188 248.324219 42.320312 249.089844 42.441406 250.808594 C 42.445312 250.882812 42.449219 250.960938 42.449219 251.039062 L 42.449219 254.609375 C 42.449219 254.746094 42.496094 254.859375 42.59375 254.957031 C 42.6875 255.050781 42.804688 255.101562 42.941406 255.101562 L 43.570312 255.101562 C 43.707031 255.101562 43.824219 255.050781 43.917969 254.957031 C 44.015625 254.859375 44.0625 254.746094 44.0625 254.609375 L 44.0625 251.039062 C 44.0625 250.714844 44.03125 250.394531 43.96875 250.078125 C 43.90625 249.761719 43.8125 249.457031 43.6875 249.160156 C 43.5625 248.859375 43.414062 248.578125 43.234375 248.308594 C 43.054688 248.042969 42.851562 247.792969 42.621094 247.566406 C 42.394531 247.335938 42.148438 247.132812 41.878906 246.953125 C 41.609375 246.777344 41.328125 246.625 41.03125 246.5 C 40.730469 246.378906 40.425781 246.285156 40.109375 246.21875 C 39.792969 246.15625 39.472656 246.125 39.152344 246.125 C 38.523438 246.125 37.929688 246.273438 37.375 246.574219 C 37.296875 246.617188 37.21875 246.613281 37.140625 246.570312 C 37.066406 246.523438 37.027344 246.457031 37.027344 246.367188 L 37.027344 245.597656 C 37.027344 245.460938 36.976562 245.347656 36.882812 245.25 C 36.785156 245.15625 36.671875 245.105469 36.535156 245.105469 L 35.902344 245.105469 C 35.765625 245.105469 35.652344 245.15625 35.554688 245.25 C 35.460938 245.347656 35.410156 245.460938 35.410156 245.597656 L 35.410156 254.609375 C 35.410156 254.746094 35.460938 254.859375 35.554688 254.957031 C 35.652344 255.050781 35.765625 255.101562 35.902344 255.101562 L 36.535156 255.101562 C 36.671875 255.101562 36.785156 255.050781 36.882812 254.957031 C 36.976562 254.859375 37.027344 254.746094 37.027344 254.609375 L 37.027344 251.039062 C 37.027344 250.230469 37.3125 249.542969 37.851562 249.042969 C 38.371094 248.582031 38.976562 248.339844 39.667969 248.324219 C 39.703125 248.324219 39.734375 248.324219 39.769531 248.324219 Z M 39.769531 248.324219 " fill-opacity="1" fill-rule="nonzero"/><path fill="#000000" d="M 31.789062 243.574219 C 31.578125 243.574219 31.375 243.53125 31.179688 243.449219 C 30.984375 243.371094 30.8125 243.253906 30.664062 243.105469 C 30.511719 242.957031 30.398438 242.785156 30.316406 242.589844 C 30.238281 242.394531 30.195312 242.191406 30.195312 241.980469 C 30.195312 241.769531 30.238281 241.566406 30.316406 241.371094 C 30.398438 241.175781 30.511719 241.003906 30.664062 240.855469 C 30.8125 240.707031 30.984375 240.589844 31.179688 240.511719 C 31.375 240.429688 31.578125 240.390625 31.789062 240.390625 C 32 240.390625 32.203125 240.429688 32.398438 240.511719 C 32.59375 240.589844 32.765625 240.707031 32.914062 240.855469 C 33.0625 241.003906 33.179688 241.175781 33.257812 241.371094 C 33.339844 241.566406 33.378906 241.769531 33.378906 241.980469 C 33.378906 242.191406 33.339844 242.394531 33.257812 242.589844 C 33.175781 242.785156 33.0625 242.957031 32.914062 243.105469 C 32.765625 243.253906 32.59375 243.371094 32.398438 243.449219 C 32.203125 243.53125 32 243.570312 31.789062 243.574219 Z M 31.789062 240.863281 C 31.640625 240.863281 31.496094 240.890625 31.359375 240.949219 C 31.222656 241.003906 31.101562 241.085938 31 241.191406 C 30.894531 241.296875 30.8125 241.417969 30.757812 241.554688 C 30.699219 241.691406 30.671875 241.832031 30.671875 241.980469 C 30.671875 242.128906 30.699219 242.269531 30.757812 242.40625 C 30.8125 242.542969 30.894531 242.664062 31 242.769531 C 31.101562 242.875 31.222656 242.957031 31.359375 243.011719 C 31.496094 243.070312 31.640625 243.097656 31.789062 243.097656 C 31.9375 243.097656 32.078125 243.070312 32.214844 243.011719 C 32.351562 242.957031 32.472656 242.875 32.578125 242.769531 C 32.683594 242.664062 32.761719 242.542969 32.820312 242.40625 C 32.875 242.269531 32.90625 242.128906 32.90625 241.980469 C 32.90625 241.832031 32.875 241.691406 32.820312 241.554688 C 32.761719 241.417969 32.683594 241.296875 32.578125 241.191406 C 32.472656 241.085938 32.351562 241.007812 32.214844 240.949219 C 32.078125 240.890625 31.9375 240.863281 31.789062 240.863281 Z M 31.789062 240.863281 " fill-opacity="1" fill-rule="nonzero"/><g clip-path="url(#c7bf4a594a)"><path fill="#ffffff" d="M 126.160156 94.53125 C 123.429688 94.683594 120.785156 94.902344 118.246094 95.214844 C 140.890625 73.957031 171.351562 60.9375 204.820312 60.9375 C 231.664062 60.9375 256.5625 69.3125 277.058594 83.59375 C 277.167969 83.671875 277.277344 83.761719 277.375 83.859375 C 278.199219 84.675781 278.308594 85.960938 277.640625 86.910156 C 277.570312 87.023438 277.484375 87.128906 277.375 87.226562 C 277.375 87.226562 256.722656 107.890625 256.722656 107.890625 C 255.933594 108.679688 254.71875 108.8125 253.785156 108.234375 C 239.550781 99.417969 222.777344 94.328125 204.820312 94.328125 C 200.707031 94.328125 196.664062 94.59375 192.695312 95.109375 L 191.457031 74.5 C 191.410156 73.550781 190.777344 72.726562 189.882812 72.40625 C 188.984375 72.078125 187.976562 72.328125 187.332031 73.035156 L 164.3125 98.042969 C 155.757812 95.542969 145.660156 94.328125 134.082031 94.328125 C 131.351562 94.328125 128.707031 94.398438 126.160156 94.53125 Z M 98.84375 256.25 C 93.101562 258.90625 86.742188 260.246094 80.773438 260.070312 C 70.871094 259.777344 57.21875 254.324219 53.03125 239.867188 C 51.902344 235.976562 47.828125 232.988281 43.507812 230.632812 C 36.40625 226.757812 28.363281 224.796875 28.363281 224.796875 C 27.316406 224.550781 26.578125 223.636719 26.542969 222.566406 C 26.503906 221.5 27.183594 220.535156 28.214844 220.214844 C 39.101562 216.8125 46.976562 216.9375 53.058594 218.726562 C 59.210938 220.542969 63.554688 224.089844 67.265625 227.707031 C 69.523438 229.90625 71.539062 232.128906 73.625 233.882812 C 75.410156 235.382812 77.230469 236.535156 79.425781 236.855469 C 82.097656 237.242188 84.996094 236.84375 87.921875 235.992188 C 81.707031 221.050781 78.273438 204.660156 78.273438 187.480469 C 78.273438 185.160156 78.335938 182.835938 78.457031 180.539062 C 79.816406 182.695312 81.34375 184.699219 83.042969 186.542969 C 83.042969 186.859375 83.03125 187.171875 83.03125 187.480469 C 83.03125 204.09375 86.367188 219.921875 92.398438 234.363281 C 94.644531 233.386719 96.828125 232.253906 98.84375 231.101562 L 98.84375 215.324219 C 98.84375 209.5625 100.785156 203.996094 104.316406 199.519531 C 105.953125 200.042969 107.652344 200.511719 109.402344 200.929688 C 116.609375 202.648438 124.824219 203.507812 134.082031 203.507812 C 142.664062 203.507812 150.417969 202.769531 157.347656 201.292969 C 159.105469 200.917969 160.816406 200.492188 162.480469 200.023438 C 165.757812 204.410156 167.5625 209.773438 167.5625 215.324219 L 167.5625 272.878906 C 178.984375 277.867188 191.578125 280.640625 204.820312 280.640625 C 250.53125 280.640625 288.589844 247.652344 296.476562 204.207031 L 204.820312 204.207031 C 203.507812 204.207031 202.441406 203.136719 202.441406 201.824219 L 202.441406 173.148438 C 202.441406 171.828125 203.507812 170.761719 204.820312 170.761719 L 328.160156 170.761719 C 329.375 170.761719 330.394531 171.667969 330.527344 172.871094 C 331.085938 177.667969 331.363281 182.542969 331.363281 187.480469 C 331.363281 257.328125 274.65625 314.035156 204.820312 314.035156 C 184.746094 314.035156 165.769531 309.34375 148.902344 301.019531 C 148.609375 301.996094 147.699219 302.707031 146.617188 302.707031 L 138.707031 302.707031 C 137.382812 302.707031 136.316406 301.632812 136.316406 300.320312 L 136.316406 293.886719 C 134.191406 292.511719 132.117188 291.074219 130.089844 289.585938 L 130.089844 300.320312 C 130.089844 301.632812 129.023438 302.707031 127.699219 302.707031 L 119.789062 302.707031 C 118.464844 302.707031 117.398438 301.632812 117.398438 300.320312 L 117.398438 278.949219 C 115.25 276.894531 113.175781 274.757812 111.160156 272.550781 L 111.160156 300.320312 C 111.160156 301.632812 110.09375 302.707031 108.78125 302.707031 L 101.222656 302.707031 C 99.910156 302.707031 98.84375 301.632812 98.84375 300.320312 Z M 199.429688 285.25 C 188.207031 284.648438 177.480469 282.140625 167.5625 278.054688 L 167.5625 300.320312 C 167.5625 301.597656 166.558594 302.644531 165.296875 302.695312 C 176.070312 306.402344 187.527344 308.636719 199.429688 309.148438 Z M 149.007812 295.738281 C 151.046875 296.792969 153.136719 297.792969 155.246094 298.734375 L 155.246094 271.921875 C 153.109375 270.671875 151.035156 269.332031 149.007812 267.921875 Z M 136.316406 288.167969 L 136.316406 257.425781 C 134.144531 255.292969 132.058594 253.058594 130.089844 250.726562 L 130.089844 283.621094 C 132.117188 285.199219 134.191406 286.714844 136.316406 288.167969 Z M 136.316406 250.59375 L 136.316406 239.210938 C 136.316406 237.492188 134.921875 236.089844 133.210938 236.089844 C 131.488281 236.089844 130.089844 237.492188 130.089844 239.210938 L 130.089844 243.078125 C 132.03125 245.691406 134.121094 248.199219 136.316406 250.59375 Z M 117.398438 272.238281 L 117.398438 257.691406 C 117.398438 255.964844 116.003906 254.574219 114.277344 254.574219 C 112.566406 254.574219 111.160156 255.964844 111.160156 257.691406 L 111.160156 265.296875 C 113.148438 267.691406 115.238281 270.003906 117.398438 272.238281 Z M 155.246094 266.34375 L 155.246094 255.050781 C 155.246094 253.332031 153.851562 251.929688 152.128906 251.929688 C 150.40625 251.929688 149.007812 253.332031 149.007812 255.050781 L 149.007812 262.054688 C 151.023438 263.5625 153.097656 264.996094 155.246094 266.34375 Z M 79.765625 123.554688 C 79.804688 123.492188 79.828125 123.429688 79.851562 123.367188 C 81.113281 120.617188 82.65625 118.121094 84.449219 115.867188 C 89.050781 110.113281 95.371094 105.964844 103.429688 103.238281 C 103.636719 103.199219 103.84375 103.128906 104.035156 103.03125 C 108.597656 101.542969 113.71875 100.496094 119.375 99.859375 C 119.519531 99.851562 119.65625 99.839844 119.800781 99.804688 C 124.230469 99.328125 128.988281 99.097656 134.082031 99.097656 C 145.585938 99.097656 155.539062 100.285156 163.875 102.847656 C 163.996094 102.898438 164.117188 102.945312 164.25 102.980469 C 164.386719 103.03125 164.519531 103.066406 164.664062 103.085938 C 173.171875 105.824219 179.941406 110.035156 184.894531 115.914062 C 186.796875 118.171875 188.425781 120.691406 189.773438 123.457031 C 189.796875 123.492188 189.808594 123.527344 189.832031 123.570312 C 193.046875 130.226562 194.660156 138.355469 194.660156 148.035156 C 194.660156 161.835938 191.386719 172.738281 184.855469 180.824219 C 178.667969 188.492188 169.601562 193.589844 157.84375 196.328125 C 157.6875 196.34375 157.515625 196.378906 157.359375 196.433594 C 150.488281 197.984375 142.722656 198.738281 134.082031 198.738281 C 124.777344 198.738281 116.585938 197.871094 109.484375 196.0625 C 109.351562 196.015625 109.207031 195.972656 109.046875 195.953125 C 101.222656 193.90625 94.753906 190.714844 89.632812 186.3125 C 79.9375 177.960938 75.265625 165.25 75.265625 148.035156 C 75.265625 138.347656 76.734375 130.21875 79.765625 123.554688 Z M 189.019531 113.429688 C 188.863281 113.234375 188.691406 113.039062 188.535156 112.84375 C 183.691406 107.09375 177.261719 102.738281 169.261719 99.699219 L 187.042969 80.382812 C 187.042969 80.382812 187.804688 93.210938 187.804688 93.230469 Z M 98.832031 99.902344 C 91.269531 102.945312 85.25 107.242188 80.738281 112.890625 C 80.578125 113.085938 80.433594 113.28125 80.277344 113.472656 L 81.1875 80.730469 Z M 98.832031 99.902344 " fill-opacity="1" fill-rule="evenodd"/></g></svg>