<svg xmlns="http://www.w3.org/2000/svg" xmlns:xlink="http://www.w3.org/1999/xlink" width="500" zoomAndPan="magnify" viewBox="0 0 375 374.999991" height="500" preserveAspectRatio="xMidYMid meet" version="1.0"><defs><clipPath id="c398c24a75"><path d="M 26.492188 237.105469 L 48.242188 237.105469 L 48.242188 258.855469 L 26.492188 258.855469 Z M 26.492188 237.105469 " clip-rule="nonzero"/></clipPath></defs><g clip-path="url(#c398c24a75)"><path fill="#000000" d="M 44.832031 258.855469 L 29.902344 258.855469 C 29.449219 258.855469 29.015625 258.769531 28.597656 258.597656 C 28.179688 258.421875 27.8125 258.175781 27.492188 257.855469 C 27.171875 257.539062 26.925781 257.167969 26.753906 256.753906 C 26.578125 256.335938 26.492188 255.902344 26.492188 255.449219 L 26.492188 240.515625 C 26.492188 240.0625 26.578125 239.628906 26.753906 239.210938 C 26.925781 238.792969 27.171875 238.425781 27.492188 238.105469 C 27.8125 237.789062 28.179688 237.542969 28.597656 237.367188 C 29.015625 237.195312 29.449219 237.109375 29.902344 237.105469 L 44.832031 237.105469 C 45.285156 237.109375 45.71875 237.195312 46.136719 237.367188 C 46.554688 237.542969 46.921875 237.789062 47.242188 238.105469 C 47.5625 238.425781 47.808594 238.792969 47.980469 239.210938 C 48.15625 239.628906 48.242188 240.0625 48.242188 240.515625 L 48.242188 255.449219 C 48.242188 255.902344 48.15625 256.335938 47.980469 256.753906 C 47.808594 257.167969 47.5625 257.539062 47.242188 257.855469 C 46.921875 258.175781 46.554688 258.421875 46.136719 258.597656 C 45.71875 258.769531 45.285156 258.855469 44.832031 258.855469 Z M 29.902344 237.582031 C 29.511719 237.582031 29.136719 237.65625 28.777344 237.804688 C 28.417969 237.957031 28.101562 238.167969 27.828125 238.441406 C 27.550781 238.71875 27.339844 239.035156 27.191406 239.394531 C 27.042969 239.753906 26.96875 240.125 26.96875 240.515625 L 26.96875 255.449219 C 26.96875 255.835938 27.042969 256.210938 27.191406 256.570312 C 27.339844 256.929688 27.550781 257.246094 27.828125 257.523438 C 28.101562 257.796875 28.417969 258.007812 28.777344 258.15625 C 29.136719 258.308594 29.511719 258.382812 29.902344 258.382812 L 44.832031 258.382812 C 45.222656 258.382812 45.597656 258.308594 45.957031 258.15625 C 46.316406 258.007812 46.632812 257.796875 46.90625 257.523438 C 47.183594 257.246094 47.394531 256.929688 47.542969 256.570312 C 47.691406 256.210938 47.765625 255.835938 47.765625 255.449219 L 47.765625 240.515625 C 47.765625 240.125 47.691406 239.753906 47.542969 239.394531 C 47.394531 239.035156 47.183594 238.71875 46.90625 238.441406 C 46.632812 238.167969 46.316406 237.957031 45.957031 237.804688 C 45.597656 237.65625 45.222656 237.582031 44.832031 237.582031 Z M 29.902344 237.582031 " fill-opacity="1" fill-rule="nonzero"/></g><path fill="#000000" d="M 44.832031 257.1875 L 29.902344 257.1875 C 29.671875 257.1875 29.449219 257.144531 29.234375 257.054688 C 29.023438 256.96875 28.832031 256.84375 28.671875 256.679688 C 28.507812 256.515625 28.382812 256.328125 28.292969 256.113281 C 28.207031 255.902344 28.160156 255.679688 28.160156 255.449219 L 28.160156 240.515625 C 28.160156 240.285156 28.207031 240.0625 28.292969 239.851562 C 28.382812 239.636719 28.507812 239.449219 28.671875 239.285156 C 28.832031 239.121094 29.023438 238.996094 29.234375 238.910156 C 29.449219 238.820312 29.671875 238.777344 29.902344 238.777344 L 44.832031 238.777344 C 45.066406 238.777344 45.285156 238.820312 45.5 238.910156 C 45.710938 238.996094 45.902344 239.121094 46.0625 239.285156 C 46.226562 239.449219 46.351562 239.636719 46.441406 239.851562 C 46.53125 240.0625 46.574219 240.285156 46.574219 240.515625 L 46.574219 255.449219 C 46.574219 255.679688 46.53125 255.902344 46.441406 256.113281 C 46.351562 256.328125 46.226562 256.515625 46.0625 256.679688 C 45.902344 256.84375 45.710938 256.96875 45.5 257.054688 C 45.285156 257.144531 45.066406 257.1875 44.832031 257.1875 Z M 29.902344 239.25 C 29.734375 239.25 29.570312 239.28125 29.417969 239.347656 C 29.261719 239.410156 29.125 239.503906 29.007812 239.621094 C 28.886719 239.738281 28.796875 239.875 28.730469 240.03125 C 28.667969 240.1875 28.636719 240.347656 28.636719 240.515625 L 28.636719 255.449219 C 28.636719 255.617188 28.667969 255.777344 28.730469 255.933594 C 28.796875 256.085938 28.886719 256.222656 29.007812 256.34375 C 29.125 256.460938 29.261719 256.554688 29.417969 256.617188 C 29.570312 256.683594 29.734375 256.714844 29.902344 256.714844 L 44.832031 256.714844 C 45 256.714844 45.164062 256.683594 45.316406 256.617188 C 45.472656 256.554688 45.609375 256.460938 45.726562 256.34375 C 45.847656 256.222656 45.9375 256.085938 46.003906 255.933594 C 46.066406 255.777344 46.097656 255.617188 46.097656 255.449219 L 46.097656 240.515625 C 46.097656 240.347656 46.066406 240.1875 46.003906 240.03125 C 45.9375 239.875 45.847656 239.738281 45.726562 239.621094 C 45.609375 239.503906 45.472656 239.410156 45.316406 239.347656 C 45.164062 239.28125 45 239.25 44.832031 239.25 Z M 29.902344 239.25 " fill-opacity="1" fill-rule="nonzero"/><path fill="#000000" d="M 32.105469 255.574219 L 31.472656 255.574219 C 31.207031 255.574219 30.976562 255.480469 30.789062 255.292969 C 30.601562 255.101562 30.507812 254.875 30.503906 254.609375 L 30.503906 245.597656 C 30.507812 245.332031 30.601562 245.101562 30.789062 244.914062 C 30.976562 244.726562 31.207031 244.632812 31.472656 244.632812 L 32.105469 244.632812 C 32.371094 244.632812 32.597656 244.726562 32.785156 244.914062 C 32.976562 245.105469 33.070312 245.332031 33.070312 245.597656 L 33.070312 254.609375 C 33.070312 254.875 32.976562 255.101562 32.785156 255.292969 C 32.597656 255.480469 32.371094 255.574219 32.105469 255.574219 Z M 31.472656 245.105469 C 31.335938 245.109375 31.222656 245.15625 31.125 245.25 C 31.03125 245.347656 30.980469 245.460938 30.980469 245.597656 L 30.980469 254.609375 C 30.980469 254.746094 31.027344 254.859375 31.125 254.957031 C 31.222656 255.050781 31.335938 255.101562 31.472656 255.101562 L 32.105469 255.101562 C 32.238281 255.101562 32.355469 255.050781 32.453125 254.957031 C 32.546875 254.859375 32.59375 254.746094 32.59375 254.609375 L 32.59375 245.597656 C 32.59375 245.460938 32.546875 245.347656 32.453125 245.25 C 32.355469 245.15625 32.238281 245.105469 32.105469 245.105469 Z M 31.472656 245.105469 " fill-opacity="1" fill-rule="nonzero"/><path fill="#000000" d="M 43.570312 255.574219 L 42.941406 255.574219 C 42.671875 255.574219 42.445312 255.480469 42.257812 255.292969 C 42.066406 255.101562 41.972656 254.875 41.972656 254.609375 L 41.972656 251.039062 C 41.972656 250.972656 41.972656 250.90625 41.96875 250.839844 C 41.867188 249.378906 40.75 248.761719 39.683594 248.796875 C 38.632812 248.835938 37.5 249.550781 37.5 251.035156 L 37.5 254.609375 C 37.5 254.875 37.40625 255.101562 37.21875 255.289062 C 37.027344 255.480469 36.800781 255.574219 36.535156 255.574219 L 35.902344 255.574219 C 35.636719 255.574219 35.410156 255.480469 35.21875 255.289062 C 35.03125 255.101562 34.9375 254.875 34.9375 254.609375 L 34.9375 245.597656 C 34.9375 245.332031 35.03125 245.105469 35.21875 244.914062 C 35.410156 244.726562 35.636719 244.632812 35.902344 244.632812 L 36.535156 244.632812 C 36.800781 244.632812 37.027344 244.726562 37.21875 244.914062 C 37.40625 245.105469 37.5 245.332031 37.5 245.597656 L 37.5 245.988281 C 38.027344 245.761719 38.578125 245.652344 39.152344 245.648438 C 39.503906 245.652344 39.855469 245.683594 40.203125 245.753906 C 40.546875 245.824219 40.886719 245.925781 41.210938 246.0625 C 41.539062 246.199219 41.847656 246.363281 42.140625 246.558594 C 42.4375 246.757812 42.707031 246.980469 42.957031 247.230469 C 43.207031 247.480469 43.433594 247.75 43.628906 248.046875 C 43.824219 248.339844 43.992188 248.648438 44.125 248.976562 C 44.261719 249.304688 44.363281 249.640625 44.433594 249.988281 C 44.503906 250.332031 44.539062 250.683594 44.539062 251.039062 L 44.539062 254.609375 C 44.539062 254.875 44.441406 255.101562 44.253906 255.292969 C 44.066406 255.480469 43.839844 255.574219 43.570312 255.574219 Z M 39.769531 248.324219 C 40.992188 248.324219 42.320312 249.089844 42.441406 250.808594 C 42.445312 250.882812 42.449219 250.960938 42.449219 251.039062 L 42.449219 254.609375 C 42.449219 254.746094 42.496094 254.859375 42.59375 254.957031 C 42.6875 255.050781 42.804688 255.101562 42.941406 255.101562 L 43.570312 255.101562 C 43.707031 255.101562 43.824219 255.050781 43.917969 254.957031 C 44.015625 254.859375 44.0625 254.746094 44.0625 254.609375 L 44.0625 251.039062 C 44.0625 250.714844 44.03125 250.394531 43.96875 250.078125 C 43.90625 249.761719 43.8125 249.457031 43.6875 249.160156 C 43.5625 248.859375 43.414062 248.578125 43.234375 248.308594 C 43.054688 248.042969 42.851562 247.792969 42.621094 247.566406 C 42.394531 247.335938 42.148438 247.132812 41.878906 246.953125 C 41.609375 246.777344 41.328125 246.625 41.03125 246.5 C 40.730469 246.378906 40.425781 246.285156 40.109375 246.21875 C 39.792969 246.15625 39.472656 246.125 39.152344 246.125 C 38.523438 246.125 37.929688 246.273438 37.375 246.574219 C 37.296875 246.617188 37.21875 246.613281 37.140625 246.570312 C 37.066406 246.523438 37.027344 246.457031 37.027344 246.367188 L 37.027344 245.597656 C 37.027344 245.460938 36.976562 245.347656 36.882812 245.25 C 36.785156 245.15625 36.671875 245.105469 36.535156 245.105469 L 35.902344 245.105469 C 35.765625 245.105469 35.652344 245.15625 35.554688 245.25 C 35.460938 245.347656 35.410156 245.460938 35.410156 245.597656 L 35.410156 254.609375 C 35.410156 254.746094 35.460938 254.859375 35.554688 254.957031 C 35.652344 255.050781 35.765625 255.101562 35.902344 255.101562 L 36.535156 255.101562 C 36.671875 255.101562 36.785156 255.050781 36.882812 254.957031 C 36.976562 254.859375 37.027344 254.746094 37.027344 254.609375 L 37.027344 251.039062 C 37.027344 250.230469 37.3125 249.542969 37.851562 249.042969 C 38.371094 248.582031 38.976562 248.339844 39.667969 248.324219 C 39.703125 248.324219 39.734375 248.324219 39.769531 248.324219 Z M 39.769531 248.324219 " fill-opacity="1" fill-rule="nonzero"/><path fill="#000000" d="M 31.789062 243.574219 C 31.578125 243.574219 31.375 243.53125 31.179688 243.449219 C 30.984375 243.371094 30.8125 243.253906 30.664062 243.105469 C 30.511719 242.957031 30.398438 242.785156 30.316406 242.589844 C 30.238281 242.394531 30.195312 242.191406 30.195312 241.980469 C 30.195312 241.769531 30.238281 241.566406 30.316406 241.371094 C 30.398438 241.175781 30.511719 241.003906 30.664062 240.855469 C 30.8125 240.707031 30.984375 240.589844 31.179688 240.511719 C 31.375 240.429688 31.578125 240.390625 31.789062 240.390625 C 32 240.390625 32.203125 240.429688 32.398438 240.511719 C 32.59375 240.589844 32.765625 240.707031 32.914062 240.855469 C 33.0625 241.003906 33.179688 241.175781 33.257812 241.371094 C 33.339844 241.566406 33.378906 241.769531 33.378906 241.980469 C 33.378906 242.191406 33.339844 242.394531 33.257812 242.589844 C 33.175781 242.785156 33.0625 242.957031 32.914062 243.105469 C 32.765625 243.253906 32.59375 243.371094 32.398438 243.449219 C 32.203125 243.53125 32 243.570312 31.789062 243.574219 Z M 31.789062 240.863281 C 31.640625 240.863281 31.496094 240.890625 31.359375 240.949219 C 31.222656 241.003906 31.101562 241.085938 31 241.191406 C 30.894531 241.296875 30.8125 241.417969 30.757812 241.554688 C 30.699219 241.691406 30.671875 241.832031 30.671875 241.980469 C 30.671875 242.128906 30.699219 242.269531 30.757812 242.40625 C 30.8125 242.542969 30.894531 242.664062 31 242.769531 C 31.101562 242.875 31.222656 242.957031 31.359375 243.011719 C 31.496094 243.070312 31.640625 243.097656 31.789062 243.097656 C 31.9375 243.097656 32.078125 243.070312 32.214844 243.011719 C 32.351562 242.957031 32.472656 242.875 32.578125 242.769531 C 32.683594 242.664062 32.761719 242.542969 32.820312 242.40625 C 32.875 242.269531 32.90625 242.128906 32.90625 241.980469 C 32.90625 241.832031 32.875 241.691406 32.820312 241.554688 C 32.761719 241.417969 32.683594 241.296875 32.578125 241.191406 C 32.472656 241.085938 32.351562 241.007812 32.214844 240.949219 C 32.078125 240.890625 31.9375 240.863281 31.789062 240.863281 Z M 31.789062 240.863281 " fill-opacity="1" fill-rule="nonzero"/><path fill="#000000" d="M 91.234375 0 L 283.765625 0 C 285.257812 0 286.75 0.0351562 288.242188 0.109375 C 289.734375 0.183594 291.222656 0.292969 292.707031 0.4375 C 294.195312 0.585938 295.675781 0.769531 297.152344 0.988281 C 298.628906 1.207031 300.101562 1.460938 301.566406 1.753906 C 303.03125 2.042969 304.484375 2.371094 305.933594 2.734375 C 307.382812 3.097656 308.820312 3.496094 310.25 3.929688 C 311.679688 4.363281 313.097656 4.832031 314.5 5.332031 C 315.90625 5.835938 317.300781 6.375 318.679688 6.945312 C 320.058594 7.515625 321.425781 8.121094 322.773438 8.757812 C 324.125 9.398438 325.457031 10.070312 326.773438 10.773438 C 328.089844 11.476562 329.390625 12.210938 330.667969 12.980469 C 331.949219 13.746094 333.210938 14.546875 334.453125 15.375 C 335.695312 16.207031 336.914062 17.066406 338.113281 17.953125 C 339.3125 18.84375 340.488281 19.761719 341.644531 20.710938 C 342.796875 21.65625 343.929688 22.632812 345.035156 23.632812 C 346.140625 24.636719 347.222656 25.664062 348.277344 26.722656 C 349.335938 27.777344 350.363281 28.859375 351.367188 29.964844 C 352.367188 31.070312 353.34375 32.203125 354.289062 33.355469 C 355.238281 34.511719 356.15625 35.6875 357.046875 36.886719 C 357.933594 38.085938 358.792969 39.304688 359.625 40.546875 C 360.453125 41.789062 361.253906 43.050781 362.019531 44.332031 C 362.789062 45.609375 363.523438 46.910156 364.226562 48.226562 C 364.929688 49.542969 365.601562 50.875 366.242188 52.226562 C 366.878906 53.574219 367.484375 54.941406 368.054688 56.320312 C 368.625 57.699219 369.164062 59.09375 369.667969 60.496094 C 370.167969 61.902344 370.636719 63.320312 371.070312 64.75 C 371.503906 66.179688 371.902344 67.617188 372.265625 69.066406 C 372.628906 70.515625 372.957031 71.96875 373.246094 73.433594 C 373.539062 74.898438 373.792969 76.371094 374.011719 77.847656 C 374.230469 79.324219 374.414062 80.804688 374.5625 82.292969 C 374.707031 83.777344 374.816406 85.265625 374.890625 86.757812 C 374.964844 88.25 375 89.742188 375 91.234375 L 375 283.765625 C 375 285.257812 374.964844 286.75 374.890625 288.242188 C 374.816406 289.734375 374.707031 291.222656 374.5625 292.707031 C 374.414062 294.195312 374.230469 295.675781 374.011719 297.152344 C 373.792969 298.628906 373.539062 300.101562 373.246094 301.566406 C 372.957031 303.03125 372.628906 304.484375 372.265625 305.933594 C 371.902344 307.382812 371.503906 308.820312 371.070312 310.25 C 370.636719 311.679688 370.167969 313.097656 369.667969 314.5 C 369.164062 315.90625 368.625 317.300781 368.054688 318.679688 C 367.484375 320.058594 366.878906 321.425781 366.242188 322.773438 C 365.601562 324.125 364.929688 325.457031 364.226562 326.773438 C 363.523438 328.089844 362.789062 329.390625 362.019531 330.667969 C 361.253906 331.949219 360.453125 333.210938 359.625 334.453125 C 358.792969 335.695312 357.933594 336.914062 357.046875 338.113281 C 356.15625 339.3125 355.238281 340.488281 354.289062 341.644531 C 353.34375 342.796875 352.367188 343.929688 351.367188 345.035156 C 350.363281 346.140625 349.332031 347.222656 348.277344 348.277344 C 347.222656 349.335938 346.140625 350.363281 345.035156 351.367188 C 343.929688 352.367188 342.796875 353.34375 341.644531 354.289062 C 340.488281 355.238281 339.3125 356.15625 338.113281 357.046875 C 336.914062 357.933594 335.695312 358.792969 334.453125 359.625 C 333.210938 360.453125 331.949219 361.253906 330.667969 362.019531 C 329.390625 362.789062 328.089844 363.523438 326.773438 364.226562 C 325.457031 364.929688 324.125 365.601562 322.773438 366.242188 C 321.425781 366.878906 320.058594 367.484375 318.679688 368.054688 C 317.300781 368.625 315.90625 369.164062 314.5 369.667969 C 313.097656 370.167969 311.679688 370.636719 310.25 371.070312 C 308.820312 371.503906 307.382812 371.902344 305.933594 372.265625 C 304.484375 372.628906 303.03125 372.957031 301.566406 373.246094 C 300.101562 373.539062 298.628906 373.792969 297.152344 374.011719 C 295.675781 374.230469 294.195312 374.414062 292.707031 374.5625 C 291.222656 374.707031 289.734375 374.816406 288.242188 374.890625 C 286.75 374.964844 285.257812 375 283.765625 375 L 91.234375 375 C 89.742188 375 88.25 374.964844 86.757812 374.890625 C 85.265625 374.816406 83.777344 374.707031 82.292969 374.5625 C 80.804688 374.414062 79.324219 374.230469 77.847656 374.011719 C 76.371094 373.792969 74.898438 373.539062 73.433594 373.246094 C 71.96875 372.957031 70.515625 372.628906 69.066406 372.265625 C 67.617188 371.902344 66.179688 371.503906 64.75 371.070312 C 63.320312 370.636719 61.902344 370.167969 60.496094 369.667969 C 59.09375 369.164062 57.699219 368.625 56.320312 368.054688 C 54.941406 367.484375 53.574219 366.878906 52.226562 366.242188 C 50.875 365.601562 49.542969 364.929688 48.226562 364.226562 C 46.910156 363.523438 45.609375 362.789062 44.332031 362.019531 C 43.050781 361.253906 41.789062 360.453125 40.546875 359.625 C 39.304688 358.792969 38.085938 357.933594 36.886719 357.046875 C 35.6875 356.15625 34.511719 355.238281 33.355469 354.289062 C 32.203125 353.34375 31.070312 352.367188 29.964844 351.367188 C 28.859375 350.363281 27.777344 349.332031 26.722656 348.277344 C 25.664062 347.222656 24.636719 346.140625 23.632812 345.035156 C 22.632812 343.929688 21.65625 342.796875 20.710938 341.644531 C 19.761719 340.488281 18.84375 339.3125 17.953125 338.113281 C 17.066406 336.914062 16.207031 335.695312 15.375 334.453125 C 14.546875 333.210938 13.746094 331.949219 12.980469 330.667969 C 12.210938 329.390625 11.476562 328.089844 10.773438 326.773438 C 10.070312 325.457031 9.398438 324.125 8.757812 322.773438 C 8.121094 321.425781 7.515625 320.058594 6.945312 318.679688 C 6.375 317.300781 5.835938 315.90625 5.332031 314.5 C 4.832031 313.097656 4.363281 311.679688 3.929688 310.25 C 3.496094 308.820312 3.097656 307.382812 2.734375 305.933594 C 2.371094 304.484375 2.042969 303.03125 1.753906 301.566406 C 1.460938 300.101562 1.207031 298.628906 0.988281 297.152344 C 0.769531 295.675781 0.585938 294.195312 0.4375 292.707031 C 0.292969 291.222656 0.183594 289.734375 0.109375 288.242188 C 0.0351562 286.75 0 285.257812 0 283.765625 L 0 91.234375 C 0 89.742188 0.0351562 88.25 0.109375 86.757812 C 0.183594 85.265625 0.292969 83.777344 0.4375 82.292969 C 0.585938 80.804688 0.769531 79.324219 0.988281 77.847656 C 1.207031 76.371094 1.460938 74.898438 1.753906 73.433594 C 2.042969 71.96875 2.371094 70.515625 2.734375 69.066406 C 3.097656 67.617188 3.496094 66.179688 3.929688 64.75 C 4.363281 63.320312 4.832031 61.902344 5.332031 60.496094 C 5.835938 59.09375 6.375 57.699219 6.945312 56.320312 C 7.515625 54.941406 8.121094 53.574219 8.757812 52.226562 C 9.398438 50.875 10.070312 49.542969 10.773438 48.226562 C 11.476562 46.910156 12.210938 45.609375 12.980469 44.332031 C 13.746094 43.050781 14.546875 41.789062 15.375 40.546875 C 16.207031 39.304688 17.066406 38.085938 17.953125 36.886719 C 18.84375 35.6875 19.761719 34.511719 20.710938 33.355469 C 21.65625 32.203125 22.632812 31.070312 23.632812 29.964844 C 24.636719 28.859375 25.664062 27.777344 26.722656 26.722656 C 27.777344 25.664062 28.859375 24.636719 29.964844 23.632812 C 31.070312 22.632812 32.203125 21.65625 33.355469 20.710938 C 34.511719 19.761719 35.6875 18.84375 36.886719 17.953125 C 38.085938 17.066406 39.304688 16.207031 40.546875 15.375 C 41.789062 14.546875 43.050781 13.746094 44.332031 12.980469 C 45.609375 12.210938 46.910156 11.476562 48.226562 10.773438 C 49.542969 10.070312 50.875 9.398438 52.226562 8.757812 C 53.574219 8.121094 54.941406 7.515625 56.320312 6.945312 C 57.699219 6.375 59.09375 5.835938 60.496094 5.332031 C 61.902344 4.832031 63.320312 4.363281 64.75 3.929688 C 66.179688 3.496094 67.617188 3.097656 69.066406 2.734375 C 70.515625 2.371094 71.96875 2.042969 73.433594 1.753906 C 74.898438 1.460938 76.371094 1.207031 77.847656 0.988281 C 79.324219 0.769531 80.804688 0.585938 82.292969 0.4375 C 83.777344 0.292969 85.265625 0.183594 86.757812 0.109375 C 88.25 0.0351562 89.742188 0 91.234375 0 Z M 91.234375 0 " fill-opacity="1" fill-rule="nonzero"/><path fill="#ffffff" d="M 282.65625 309.375 L 92.34375 309.375 C 91.46875 309.375 90.597656 309.332031 89.726562 309.242188 C 88.855469 309.15625 87.992188 309.027344 87.132812 308.855469 C 86.277344 308.683594 85.429688 308.472656 84.589844 308.21875 C 83.753906 307.964844 82.929688 307.667969 82.125 307.332031 C 81.316406 306.996094 80.527344 306.625 79.753906 306.210938 C 78.984375 305.796875 78.234375 305.347656 77.507812 304.863281 C 76.78125 304.375 76.078125 303.855469 75.402344 303.300781 C 74.726562 302.746094 74.078125 302.160156 73.460938 301.539062 C 72.839844 300.921875 72.253906 300.273438 71.699219 299.597656 C 71.144531 298.921875 70.625 298.21875 70.136719 297.492188 C 69.652344 296.765625 69.203125 296.015625 68.789062 295.246094 C 68.375 294.472656 68.003906 293.683594 67.667969 292.875 C 67.332031 292.066406 67.035156 291.246094 66.78125 290.410156 C 66.527344 289.570312 66.316406 288.722656 66.144531 287.867188 C 65.972656 287.007812 65.84375 286.144531 65.757812 285.273438 C 65.667969 284.402344 65.625 283.53125 65.625 282.65625 L 65.625 92.34375 C 65.625 91.46875 65.667969 90.597656 65.757812 89.726562 C 65.84375 88.855469 65.972656 87.992188 66.144531 87.132812 C 66.316406 86.273438 66.527344 85.429688 66.78125 84.589844 C 67.035156 83.753906 67.332031 82.929688 67.667969 82.125 C 68.003906 81.316406 68.375 80.527344 68.789062 79.753906 C 69.203125 78.984375 69.652344 78.234375 70.136719 77.507812 C 70.625 76.78125 71.144531 76.078125 71.699219 75.402344 C 72.253906 74.726562 72.839844 74.078125 73.460938 73.460938 C 74.078125 72.839844 74.726562 72.253906 75.402344 71.699219 C 76.078125 71.144531 76.78125 70.625 77.507812 70.136719 C 78.234375 69.652344 78.984375 69.203125 79.753906 68.789062 C 80.527344 68.375 81.316406 68.003906 82.125 67.667969 C 82.929688 67.332031 83.753906 67.035156 84.589844 66.78125 C 85.429688 66.527344 86.273438 66.316406 87.132812 66.144531 C 87.992188 65.972656 88.855469 65.84375 89.726562 65.757812 C 90.597656 65.667969 91.46875 65.625 92.34375 65.625 L 282.65625 65.625 C 283.53125 65.625 284.402344 65.667969 285.273438 65.757812 C 286.144531 65.84375 287.007812 65.972656 287.867188 66.144531 C 288.722656 66.316406 289.570312 66.527344 290.410156 66.78125 C 291.246094 67.035156 292.066406 67.332031 292.875 67.667969 C 293.683594 68.003906 294.472656 68.375 295.246094 68.789062 C 296.015625 69.203125 296.765625 69.652344 297.492188 70.136719 C 298.21875 70.625 298.921875 71.144531 299.597656 71.699219 C 300.273438 72.253906 300.921875 72.839844 301.539062 73.460938 C 302.160156 74.078125 302.746094 74.726562 303.300781 75.402344 C 303.855469 76.078125 304.375 76.78125 304.863281 77.507812 C 305.347656 78.234375 305.796875 78.984375 306.210938 79.753906 C 306.625 80.527344 306.996094 81.316406 307.332031 82.125 C 307.667969 82.929688 307.964844 83.753906 308.21875 84.589844 C 308.472656 85.429688 308.683594 86.273438 308.855469 87.132812 C 309.027344 87.992188 309.15625 88.855469 309.242188 89.726562 C 309.332031 90.597656 309.375 91.46875 309.375 92.34375 L 309.375 282.65625 C 309.375 283.53125 309.332031 284.402344 309.242188 285.273438 C 309.15625 286.144531 309.027344 287.007812 308.855469 287.867188 C 308.683594 288.722656 308.472656 289.570312 308.21875 290.410156 C 307.964844 291.246094 307.667969 292.070312 307.332031 292.875 C 306.996094 293.683594 306.625 294.472656 306.210938 295.246094 C 305.796875 296.015625 305.347656 296.765625 304.863281 297.492188 C 304.375 298.21875 303.855469 298.921875 303.300781 299.597656 C 302.746094 300.273438 302.160156 300.921875 301.539062 301.539062 C 300.921875 302.160156 300.273438 302.746094 299.597656 303.300781 C 298.921875 303.855469 298.21875 304.375 297.492188 304.863281 C 296.765625 305.347656 296.015625 305.796875 295.246094 306.210938 C 294.472656 306.625 293.683594 306.996094 292.875 307.332031 C 292.070312 307.667969 291.246094 307.964844 290.410156 308.21875 C 289.570312 308.472656 288.722656 308.683594 287.867188 308.855469 C 287.007812 309.027344 286.144531 309.15625 285.273438 309.242188 C 284.402344 309.332031 283.53125 309.375 282.65625 309.375 Z M 92.34375 75.691406 C 91.796875 75.691406 91.253906 75.71875 90.710938 75.773438 C 90.167969 75.824219 89.628906 75.90625 89.097656 76.011719 C 88.5625 76.121094 88.03125 76.253906 87.511719 76.410156 C 86.988281 76.570312 86.476562 76.753906 85.972656 76.960938 C 85.46875 77.171875 84.976562 77.40625 84.496094 77.660156 C 84.015625 77.917969 83.550781 78.199219 83.097656 78.503906 C 82.640625 78.804688 82.207031 79.128906 81.785156 79.476562 C 81.363281 79.820312 80.957031 80.1875 80.574219 80.574219 C 80.1875 80.957031 79.820312 81.363281 79.476562 81.785156 C 79.128906 82.207031 78.804688 82.640625 78.503906 83.097656 C 78.199219 83.550781 77.917969 84.015625 77.660156 84.496094 C 77.40625 84.976562 77.171875 85.46875 76.960938 85.972656 C 76.753906 86.476562 76.570312 86.988281 76.410156 87.511719 C 76.253906 88.03125 76.121094 88.5625 76.011719 89.097656 C 75.90625 89.628906 75.824219 90.167969 75.773438 90.710938 C 75.71875 91.253906 75.691406 91.796875 75.691406 92.34375 L 75.691406 282.65625 C 75.691406 283.203125 75.71875 283.746094 75.773438 284.289062 C 75.824219 284.832031 75.90625 285.371094 76.011719 285.902344 C 76.121094 286.4375 76.253906 286.96875 76.410156 287.488281 C 76.570312 288.011719 76.753906 288.523438 76.960938 289.027344 C 77.171875 289.53125 77.40625 290.023438 77.660156 290.503906 C 77.917969 290.984375 78.199219 291.449219 78.503906 291.902344 C 78.804688 292.359375 79.128906 292.792969 79.476562 293.214844 C 79.820312 293.636719 80.1875 294.042969 80.574219 294.425781 C 80.957031 294.8125 81.363281 295.179688 81.785156 295.523438 C 82.207031 295.871094 82.644531 296.195312 83.097656 296.496094 C 83.550781 296.800781 84.015625 297.082031 84.496094 297.339844 C 84.976562 297.59375 85.46875 297.828125 85.972656 298.039062 C 86.476562 298.246094 86.988281 298.429688 87.511719 298.589844 C 88.03125 298.746094 88.5625 298.878906 89.097656 298.988281 C 89.628906 299.09375 90.167969 299.175781 90.710938 299.226562 C 91.253906 299.28125 91.796875 299.308594 92.34375 299.308594 L 282.65625 299.308594 C 283.203125 299.308594 283.746094 299.28125 284.289062 299.226562 C 284.832031 299.175781 285.371094 299.09375 285.902344 298.988281 C 286.4375 298.878906 286.964844 298.746094 287.488281 298.589844 C 288.011719 298.429688 288.523438 298.246094 289.027344 298.039062 C 289.53125 297.828125 290.023438 297.59375 290.503906 297.339844 C 290.984375 297.082031 291.449219 296.800781 291.902344 296.496094 C 292.355469 296.195312 292.792969 295.871094 293.214844 295.523438 C 293.636719 295.179688 294.042969 294.8125 294.425781 294.425781 C 294.8125 294.042969 295.179688 293.636719 295.523438 293.214844 C 295.871094 292.792969 296.195312 292.355469 296.496094 291.902344 C 296.800781 291.449219 297.082031 290.984375 297.339844 290.503906 C 297.59375 290.023438 297.828125 289.53125 298.039062 289.027344 C 298.246094 288.523438 298.429688 288.011719 298.589844 287.488281 C 298.746094 286.964844 298.878906 286.4375 298.988281 285.902344 C 299.09375 285.371094 299.175781 284.832031 299.226562 284.289062 C 299.28125 283.746094 299.308594 283.203125 299.308594 282.65625 L 299.308594 92.34375 C 299.308594 91.796875 299.28125 91.253906 299.226562 90.710938 C 299.175781 90.167969 299.09375 89.628906 298.988281 89.097656 C 298.878906 88.5625 298.746094 88.03125 298.589844 87.511719 C 298.429688 86.988281 298.246094 86.476562 298.039062 85.972656 C 297.828125 85.46875 297.59375 84.976562 297.339844 84.496094 C 297.082031 84.015625 296.800781 83.550781 296.496094 83.097656 C 296.195312 82.640625 295.871094 82.207031 295.523438 81.785156 C 295.179688 81.363281 294.8125 80.957031 294.425781 80.574219 C 294.042969 80.1875 293.636719 79.820312 293.214844 79.476562 C 292.792969 79.128906 292.359375 78.804688 291.902344 78.503906 C 291.449219 78.199219 290.984375 77.917969 290.503906 77.660156 C 290.023438 77.40625 289.53125 77.171875 289.027344 76.960938 C 288.523438 76.753906 288.011719 76.570312 287.488281 76.410156 C 286.96875 76.253906 286.4375 76.121094 285.902344 76.011719 C 285.371094 75.90625 284.832031 75.824219 284.289062 75.773438 C 283.746094 75.71875 283.203125 75.691406 282.65625 75.691406 Z M 92.34375 75.691406 " fill-opacity="1" fill-rule="nonzero"/><path fill="#ffffff" d="M 275.742188 291.050781 L 99.257812 291.050781 C 98.253906 291.050781 97.257812 290.953125 96.273438 290.753906 C 95.289062 290.558594 94.332031 290.265625 93.402344 289.882812 C 92.472656 289.496094 91.59375 289.023438 90.757812 288.464844 C 89.921875 287.90625 89.148438 287.273438 88.4375 286.5625 C 87.726562 285.851562 87.09375 285.078125 86.535156 284.242188 C 85.976562 283.40625 85.503906 282.527344 85.117188 281.597656 C 84.734375 280.667969 84.441406 279.710938 84.246094 278.726562 C 84.046875 277.742188 83.949219 276.746094 83.949219 275.742188 L 83.949219 99.257812 C 83.949219 98.253906 84.046875 97.257812 84.246094 96.273438 C 84.441406 95.285156 84.730469 94.332031 85.117188 93.402344 C 85.503906 92.472656 85.972656 91.589844 86.53125 90.753906 C 87.089844 89.921875 87.726562 89.148438 88.4375 88.4375 C 89.148438 87.726562 89.921875 87.089844 90.753906 86.53125 C 91.589844 85.972656 92.472656 85.503906 93.402344 85.117188 C 94.332031 84.730469 95.285156 84.441406 96.273438 84.246094 C 97.257812 84.046875 98.253906 83.949219 99.257812 83.949219 L 275.742188 83.949219 C 276.746094 83.949219 277.742188 84.046875 278.726562 84.246094 C 279.714844 84.441406 280.667969 84.730469 281.597656 85.117188 C 282.527344 85.503906 283.410156 85.972656 284.246094 86.53125 C 285.078125 87.089844 285.851562 87.726562 286.5625 88.4375 C 287.273438 89.148438 287.910156 89.921875 288.46875 90.753906 C 289.027344 91.589844 289.496094 92.472656 289.882812 93.402344 C 290.269531 94.332031 290.558594 95.285156 290.753906 96.273438 C 290.953125 97.257812 291.050781 98.253906 291.050781 99.257812 L 291.050781 275.742188 C 291.050781 276.746094 290.953125 277.742188 290.753906 278.726562 C 290.558594 279.710938 290.265625 280.667969 289.882812 281.597656 C 289.496094 282.527344 289.023438 283.40625 288.464844 284.242188 C 287.90625 285.078125 287.273438 285.851562 286.5625 286.5625 C 285.851562 287.273438 285.078125 287.90625 284.242188 288.464844 C 283.40625 289.023438 282.527344 289.496094 281.597656 289.882812 C 280.667969 290.265625 279.710938 290.558594 278.726562 290.753906 C 277.742188 290.953125 276.746094 291.050781 275.742188 291.050781 Z M 99.257812 94.011719 C 98.914062 94.011719 98.574219 94.046875 98.234375 94.113281 C 97.894531 94.179688 97.566406 94.28125 97.25 94.410156 C 96.929688 94.542969 96.628906 94.707031 96.34375 94.898438 C 96.054688 95.089844 95.789062 95.304688 95.546875 95.550781 C 95.300781 95.792969 95.085938 96.058594 94.894531 96.347656 C 94.703125 96.632812 94.539062 96.933594 94.410156 97.253906 C 94.277344 97.570312 94.175781 97.898438 94.109375 98.238281 C 94.042969 98.578125 94.007812 98.917969 94.007812 99.261719 L 94.007812 275.742188 C 94.007812 276.085938 94.042969 276.425781 94.109375 276.765625 C 94.175781 277.101562 94.277344 277.433594 94.410156 277.75 C 94.539062 278.070312 94.703125 278.371094 94.894531 278.65625 C 95.085938 278.945312 95.300781 279.210938 95.546875 279.453125 C 95.789062 279.699219 96.054688 279.914062 96.34375 280.105469 C 96.628906 280.296875 96.929688 280.460938 97.25 280.589844 C 97.566406 280.722656 97.894531 280.824219 98.234375 280.890625 C 98.574219 280.957031 98.914062 280.992188 99.257812 280.992188 L 275.742188 280.992188 C 276.085938 280.992188 276.425781 280.957031 276.765625 280.890625 C 277.105469 280.824219 277.433594 280.722656 277.75 280.589844 C 278.070312 280.460938 278.371094 280.296875 278.65625 280.105469 C 278.945312 279.914062 279.210938 279.699219 279.453125 279.453125 C 279.699219 279.210938 279.914062 278.945312 280.105469 278.65625 C 280.296875 278.371094 280.460938 278.070312 280.589844 277.75 C 280.722656 277.433594 280.824219 277.101562 280.890625 276.765625 C 280.957031 276.425781 280.992188 276.085938 280.992188 275.742188 L 280.992188 99.257812 C 280.992188 98.914062 280.957031 98.574219 280.890625 98.234375 C 280.824219 97.894531 280.722656 97.566406 280.589844 97.25 C 280.460938 96.929688 280.296875 96.628906 280.105469 96.34375 C 279.914062 96.054688 279.699219 95.789062 279.453125 95.546875 C 279.210938 95.300781 278.945312 95.085938 278.65625 94.894531 C 278.371094 94.703125 278.070312 94.539062 277.75 94.410156 C 277.433594 94.277344 277.105469 94.175781 276.765625 94.109375 C 276.425781 94.042969 276.085938 94.007812 275.742188 94.007812 Z M 99.257812 94.011719 " fill-opacity="1" fill-rule="nonzero"/><path fill="#ffffff" d="M 132.0625 274.058594 L 110.808594 274.058594 C 110.476562 274.058594 110.152344 274.023438 109.828125 273.960938 C 109.503906 273.894531 109.1875 273.800781 108.882812 273.675781 C 108.578125 273.546875 108.285156 273.390625 108.011719 273.207031 C 107.738281 273.023438 107.484375 272.816406 107.25 272.582031 C 107.015625 272.347656 106.804688 272.09375 106.625 271.820312 C 106.441406 271.542969 106.285156 271.253906 106.160156 270.949219 C 106.03125 270.644531 105.9375 270.328125 105.871094 270.003906 C 105.808594 269.679688 105.777344 269.351562 105.777344 269.019531 L 105.777344 152.113281 C 105.777344 151.785156 105.808594 151.457031 105.871094 151.132812 C 105.9375 150.808594 106.03125 150.492188 106.160156 150.1875 C 106.285156 149.882812 106.441406 149.59375 106.621094 149.316406 C 106.804688 149.042969 107.015625 148.789062 107.25 148.554688 C 107.484375 148.320312 107.738281 148.113281 108.011719 147.925781 C 108.285156 147.742188 108.578125 147.589844 108.882812 147.460938 C 109.1875 147.335938 109.503906 147.238281 109.828125 147.175781 C 110.152344 147.109375 110.476562 147.078125 110.808594 147.078125 L 132.0625 147.078125 C 132.394531 147.078125 132.722656 147.109375 133.046875 147.175781 C 133.371094 147.238281 133.683594 147.335938 133.992188 147.460938 C 134.296875 147.589844 134.585938 147.742188 134.863281 147.925781 C 135.136719 148.109375 135.390625 148.320312 135.625 148.554688 C 135.859375 148.789062 136.066406 149.042969 136.25 149.316406 C 136.433594 149.59375 136.589844 149.882812 136.714844 150.1875 C 136.84375 150.492188 136.9375 150.808594 137.003906 151.132812 C 137.066406 151.457031 137.101562 151.785156 137.101562 152.113281 L 137.101562 269.019531 C 137.101562 269.351562 137.066406 269.679688 137.003906 270.003906 C 136.9375 270.328125 136.84375 270.644531 136.714844 270.949219 C 136.589844 271.253906 136.433594 271.542969 136.25 271.820312 C 136.066406 272.09375 135.859375 272.347656 135.625 272.582031 C 135.390625 272.816406 135.136719 273.023438 134.863281 273.207031 C 134.585938 273.390625 134.296875 273.546875 133.992188 273.675781 C 133.683594 273.800781 133.371094 273.894531 133.046875 273.960938 C 132.722656 274.023438 132.394531 274.058594 132.0625 274.058594 Z M 115.839844 264 L 127.03125 264 L 127.03125 157.148438 L 115.839844 157.148438 Z M 120.953125 137.351562 C 119.757812 137.363281 118.574219 137.257812 117.398438 137.027344 C 116.226562 136.800781 115.085938 136.457031 113.984375 135.996094 C 112.882812 135.535156 111.835938 134.96875 110.847656 134.296875 C 109.859375 133.625 108.949219 132.859375 108.117188 132 C 106.488281 130.28125 105.242188 128.316406 104.378906 126.109375 C 103.515625 123.90625 103.097656 121.617188 103.125 119.25 C 103.125 108.804688 111 100.925781 121.445312 100.925781 C 131.886719 100.925781 139.480469 108.59375 139.523438 119.167969 C 139.621094 121.519531 139.253906 123.792969 138.421875 125.992188 C 137.59375 128.195312 136.367188 130.144531 134.742188 131.847656 C 131.316406 135.394531 126.421875 137.339844 120.953125 137.339844 Z M 121.4375 111 C 116.578125 111 113.1875 114.394531 113.1875 119.25 C 113.1875 123.890625 116.453125 127.261719 120.953125 127.261719 C 123.707031 127.261719 125.972656 126.421875 127.496094 124.847656 C 128.183594 124.117188 128.695312 123.277344 129.035156 122.335938 C 129.375 121.390625 129.515625 120.417969 129.449219 119.414062 C 129.449219 119.359375 129.449219 119.300781 129.449219 119.25 C 129.445312 114.25 126.304688 111 121.4375 111 Z M 139.5 119.25 Z M 139.5 119.25 " fill-opacity="1" fill-rule="nonzero"/><path fill="#ffffff" d="M 266.851562 274.058594 L 245.589844 274.058594 C 245.261719 274.058594 244.933594 274.023438 244.609375 273.960938 C 244.285156 273.894531 243.96875 273.800781 243.664062 273.675781 C 243.359375 273.546875 243.070312 273.390625 242.792969 273.207031 C 242.519531 273.023438 242.265625 272.816406 242.03125 272.582031 C 241.796875 272.347656 241.589844 272.09375 241.40625 271.820312 C 241.222656 271.542969 241.066406 271.253906 240.941406 270.949219 C 240.8125 270.644531 240.71875 270.328125 240.65625 270.003906 C 240.589844 269.679688 240.558594 269.351562 240.558594 269.019531 L 240.558594 201.628906 C 240.558594 182.050781 233.148438 172.121094 218.539062 172.121094 C 206.015625 172.121094 197.617188 181.253906 194.851562 190.300781 C 194.824219 190.382812 194.796875 190.464844 194.765625 190.546875 C 194.046875 192.519531 193.621094 195.582031 193.621094 198.730469 L 193.621094 269.019531 C 193.621094 269.351562 193.589844 269.679688 193.523438 270.003906 C 193.460938 270.328125 193.363281 270.644531 193.238281 270.949219 C 193.113281 271.253906 192.957031 271.542969 192.773438 271.820312 C 192.589844 272.09375 192.382812 272.347656 192.148438 272.582031 C 191.914062 272.816406 191.660156 273.023438 191.382812 273.207031 C 191.109375 273.390625 190.820312 273.546875 190.515625 273.675781 C 190.207031 273.800781 189.894531 273.894531 189.570312 273.960938 C 189.246094 274.023438 188.917969 274.058594 188.585938 274.058594 L 167.332031 274.058594 C 167 274.058594 166.675781 274.023438 166.351562 273.960938 C 166.027344 273.894531 165.710938 273.800781 165.40625 273.675781 C 165.101562 273.546875 164.808594 273.390625 164.535156 273.207031 C 164.257812 273.023438 164.003906 272.816406 163.769531 272.582031 C 163.539062 272.347656 163.328125 272.09375 163.144531 271.820312 C 162.960938 271.542969 162.804688 271.253906 162.679688 270.949219 C 162.554688 270.644531 162.457031 270.328125 162.394531 270.003906 C 162.328125 269.679688 162.296875 269.351562 162.296875 269.019531 L 162.296875 183.75 C 162.296875 170.734375 162.011719 161.382812 161.34375 152.484375 C 161.316406 152.136719 161.328125 151.792969 161.375 151.449219 C 161.417969 151.105469 161.5 150.769531 161.613281 150.445312 C 161.726562 150.117188 161.875 149.804688 162.054688 149.507812 C 162.234375 149.210938 162.441406 148.9375 162.675781 148.683594 C 162.910156 148.429688 163.171875 148.203125 163.453125 148 C 163.734375 147.800781 164.035156 147.632812 164.351562 147.492188 C 164.667969 147.355469 164.996094 147.25 165.335938 147.179688 C 165.675781 147.105469 166.019531 147.070312 166.363281 147.070312 L 185.203125 147.070312 C 185.523438 147.070312 185.835938 147.101562 186.148438 147.160156 C 186.460938 147.21875 186.765625 147.308594 187.058594 147.425781 C 187.355469 147.542969 187.636719 147.6875 187.902344 147.855469 C 188.171875 148.027344 188.421875 148.21875 188.652344 148.4375 C 188.882812 148.65625 189.09375 148.890625 189.277344 149.148438 C 189.464844 149.40625 189.625 149.675781 189.761719 149.964844 C 189.894531 150.25 190.003906 150.546875 190.082031 150.855469 C 190.160156 151.164062 190.210938 151.476562 190.230469 151.792969 L 190.628906 158.199219 C 193.023438 155.859375 195.632812 153.796875 198.464844 152.015625 C 206.339844 147.042969 215.714844 144.417969 225.542969 144.417969 C 232.132812 144.417969 244.800781 145.859375 255.617188 155.542969 C 266.4375 165.226562 271.875 179.890625 271.875 199.214844 L 271.875 269.019531 C 271.875 269.351562 271.84375 269.679688 271.777344 270.003906 C 271.714844 270.328125 271.621094 270.640625 271.492188 270.945312 C 271.367188 271.25 271.214844 271.542969 271.03125 271.816406 C 270.847656 272.089844 270.636719 272.347656 270.40625 272.578125 C 270.171875 272.8125 269.917969 273.023438 269.644531 273.207031 C 269.367188 273.390625 269.078125 273.546875 268.773438 273.671875 C 268.46875 273.796875 268.15625 273.894531 267.832031 273.960938 C 267.507812 274.023438 267.179688 274.058594 266.851562 274.058594 Z M 250.625 264 L 261.8125 264 L 261.8125 199.214844 C 261.8125 157.714844 234.0625 154.488281 225.542969 154.488281 C 207.734375 154.488281 195.996094 164.871094 191.359375 173.765625 C 191.144531 174.171875 190.882812 174.542969 190.566406 174.878906 C 190.253906 175.214844 189.898438 175.503906 189.507812 175.742188 C 189.113281 175.980469 188.695312 176.160156 188.25 176.285156 C 187.808594 176.410156 187.355469 176.472656 186.894531 176.472656 L 186.414062 176.472656 C 186.09375 176.472656 185.78125 176.441406 185.46875 176.382812 C 185.15625 176.324219 184.855469 176.234375 184.558594 176.117188 C 184.265625 176 183.980469 175.859375 183.714844 175.6875 C 183.445312 175.515625 183.195312 175.324219 182.964844 175.105469 C 182.734375 174.890625 182.527344 174.652344 182.339844 174.394531 C 182.152344 174.136719 181.992188 173.867188 181.859375 173.578125 C 181.722656 173.292969 181.617188 172.992188 181.539062 172.6875 C 181.460938 172.378906 181.410156 172.066406 181.390625 171.75 L 180.476562 157.148438 L 171.75 157.148438 C 172.183594 164.761719 172.375 173.054688 172.375 183.773438 L 172.375 264 L 183.566406 264 L 183.566406 198.75 C 183.566406 194.421875 184.171875 190.347656 185.273438 187.253906 C 186.355469 183.789062 187.917969 180.554688 189.957031 177.554688 C 192 174.554688 194.429688 171.910156 197.25 169.628906 C 198.742188 168.414062 200.328125 167.335938 202.007812 166.394531 C 203.6875 165.453125 205.433594 164.660156 207.25 164.015625 C 209.0625 163.375 210.917969 162.890625 212.816406 162.566406 C 214.714844 162.242188 216.625 162.082031 218.550781 162.085938 C 238.941406 162.085938 250.636719 176.511719 250.636719 201.660156 Z M 250.625 264 " fill-opacity="1" fill-rule="nonzero"/></svg>