<svg xmlns="http://www.w3.org/2000/svg" xmlns:xlink="http://www.w3.org/1999/xlink" width="500" zoomAndPan="magnify" viewBox="0 0 375 374.999991" height="500" preserveAspectRatio="xMidYMid meet" version="1.0"><defs><clipPath id="5f771d15df"><path d="M 26.492188 237.105469 L 48.242188 237.105469 L 48.242188 258.855469 L 26.492188 258.855469 Z M 26.492188 237.105469 " clip-rule="nonzero"/></clipPath></defs><g clip-path="url(#5f771d15df)"><path fill="#000000" d="M 44.832031 258.855469 L 29.902344 258.855469 C 29.449219 258.855469 29.015625 258.769531 28.597656 258.597656 C 28.179688 258.421875 27.8125 258.175781 27.492188 257.855469 C 27.171875 257.539062 26.925781 257.167969 26.753906 256.753906 C 26.578125 256.335938 26.492188 255.902344 26.492188 255.449219 L 26.492188 240.515625 C 26.492188 240.0625 26.578125 239.628906 26.753906 239.210938 C 26.925781 238.792969 27.171875 238.425781 27.492188 238.105469 C 27.8125 237.789062 28.179688 237.542969 28.597656 237.367188 C 29.015625 237.195312 29.449219 237.109375 29.902344 237.105469 L 44.832031 237.105469 C 45.285156 237.109375 45.71875 237.195312 46.136719 237.367188 C 46.554688 237.542969 46.921875 237.789062 47.242188 238.105469 C 47.5625 238.425781 47.808594 238.792969 47.980469 239.210938 C 48.15625 239.628906 48.242188 240.0625 48.242188 240.515625 L 48.242188 255.449219 C 48.242188 255.902344 48.15625 256.335938 47.980469 256.753906 C 47.808594 257.167969 47.5625 257.539062 47.242188 257.855469 C 46.921875 258.175781 46.554688 258.421875 46.136719 258.597656 C 45.71875 258.769531 45.285156 258.855469 44.832031 258.855469 Z M 29.902344 237.582031 C 29.511719 237.582031 29.136719 237.65625 28.777344 237.804688 C 28.417969 237.957031 28.101562 238.167969 27.828125 238.441406 C 27.550781 238.71875 27.339844 239.035156 27.191406 239.394531 C 27.042969 239.753906 26.96875 240.125 26.96875 240.515625 L 26.96875 255.449219 C 26.96875 255.835938 27.042969 256.210938 27.191406 256.570312 C 27.339844 256.929688 27.550781 257.246094 27.828125 257.523438 C 28.101562 257.796875 28.417969 258.007812 28.777344 258.15625 C 29.136719 258.308594 29.511719 258.382812 29.902344 258.382812 L 44.832031 258.382812 C 45.222656 258.382812 45.597656 258.308594 45.957031 258.15625 C 46.316406 258.007812 46.632812 257.796875 46.90625 257.523438 C 47.183594 257.246094 47.394531 256.929688 47.542969 256.570312 C 47.691406 256.210938 47.765625 255.835938 47.765625 255.449219 L 47.765625 240.515625 C 47.765625 240.125 47.691406 239.753906 47.542969 239.394531 C 47.394531 239.035156 47.183594 238.71875 46.90625 238.441406 C 46.632812 238.167969 46.316406 237.957031 45.957031 237.804688 C 45.597656 237.65625 45.222656 237.582031 44.832031 237.582031 Z M 29.902344 237.582031 " fill-opacity="1" fill-rule="nonzero"/></g><path fill="#000000" d="M 44.832031 257.1875 L 29.902344 257.1875 C 29.671875 257.1875 29.449219 257.144531 29.234375 257.054688 C 29.023438 256.96875 28.832031 256.84375 28.671875 256.679688 C 28.507812 256.515625 28.382812 256.328125 28.292969 256.113281 C 28.207031 255.902344 28.160156 255.679688 28.160156 255.449219 L 28.160156 240.515625 C 28.160156 240.285156 28.207031 240.0625 28.292969 239.851562 C 28.382812 239.636719 28.507812 239.449219 28.671875 239.285156 C 28.832031 239.121094 29.023438 238.996094 29.234375 238.910156 C 29.449219 238.820312 29.671875 238.777344 29.902344 238.777344 L 44.832031 238.777344 C 45.066406 238.777344 45.285156 238.820312 45.5 238.910156 C 45.710938 238.996094 45.902344 239.121094 46.0625 239.285156 C 46.226562 239.449219 46.351562 239.636719 46.441406 239.851562 C 46.53125 240.0625 46.574219 240.285156 46.574219 240.515625 L 46.574219 255.449219 C 46.574219 255.679688 46.53125 255.902344 46.441406 256.113281 C 46.351562 256.328125 46.226562 256.515625 46.0625 256.679688 C 45.902344 256.84375 45.710938 256.96875 45.5 257.054688 C 45.285156 257.144531 45.066406 257.1875 44.832031 257.1875 Z M 29.902344 239.25 C 29.734375 239.25 29.570312 239.28125 29.417969 239.347656 C 29.261719 239.410156 29.125 239.503906 29.007812 239.621094 C 28.886719 239.738281 28.796875 239.875 28.730469 240.03125 C 28.667969 240.1875 28.636719 240.347656 28.636719 240.515625 L 28.636719 255.449219 C 28.636719 255.617188 28.667969 255.777344 28.730469 255.933594 C 28.796875 256.085938 28.886719 256.222656 29.007812 256.34375 C 29.125 256.460938 29.261719 256.554688 29.417969 256.617188 C 29.570312 256.683594 29.734375 256.714844 29.902344 256.714844 L 44.832031 256.714844 C 45 256.714844 45.164062 256.683594 45.316406 256.617188 C 45.472656 256.554688 45.609375 256.460938 45.726562 256.34375 C 45.847656 256.222656 45.9375 256.085938 46.003906 255.933594 C 46.066406 255.777344 46.097656 255.617188 46.097656 255.449219 L 46.097656 240.515625 C 46.097656 240.347656 46.066406 240.1875 46.003906 240.03125 C 45.9375 239.875 45.847656 239.738281 45.726562 239.621094 C 45.609375 239.503906 45.472656 239.410156 45.316406 239.347656 C 45.164062 239.28125 45 239.25 44.832031 239.25 Z M 29.902344 239.25 " fill-opacity="1" fill-rule="nonzero"/><path fill="#000000" d="M 32.105469 255.574219 L 31.472656 255.574219 C 31.207031 255.574219 30.976562 255.480469 30.789062 255.292969 C 30.601562 255.101562 30.507812 254.875 30.503906 254.609375 L 30.503906 245.597656 C 30.507812 245.332031 30.601562 245.101562 30.789062 244.914062 C 30.976562 244.726562 31.207031 244.632812 31.472656 244.632812 L 32.105469 244.632812 C 32.371094 244.632812 32.597656 244.726562 32.785156 244.914062 C 32.976562 245.105469 33.070312 245.332031 33.070312 245.597656 L 33.070312 254.609375 C 33.070312 254.875 32.976562 255.101562 32.785156 255.292969 C 32.597656 255.480469 32.371094 255.574219 32.105469 255.574219 Z M 31.472656 245.105469 C 31.335938 245.109375 31.222656 245.15625 31.125 245.25 C 31.03125 245.347656 30.980469 245.460938 30.980469 245.597656 L 30.980469 254.609375 C 30.980469 254.746094 31.027344 254.859375 31.125 254.957031 C 31.222656 255.050781 31.335938 255.101562 31.472656 255.101562 L 32.105469 255.101562 C 32.238281 255.101562 32.355469 255.050781 32.453125 254.957031 C 32.546875 254.859375 32.59375 254.746094 32.59375 254.609375 L 32.59375 245.597656 C 32.59375 245.460938 32.546875 245.347656 32.453125 245.25 C 32.355469 245.15625 32.238281 245.105469 32.105469 245.105469 Z M 31.472656 245.105469 " fill-opacity="1" fill-rule="nonzero"/><path fill="#000000" d="M 43.570312 255.574219 L 42.941406 255.574219 C 42.671875 255.574219 42.445312 255.480469 42.257812 255.292969 C 42.066406 255.101562 41.972656 254.875 41.972656 254.609375 L 41.972656 251.039062 C 41.972656 250.972656 41.972656 250.90625 41.96875 250.839844 C 41.867188 249.378906 40.75 248.761719 39.683594 248.796875 C 38.632812 248.835938 37.5 249.550781 37.5 251.035156 L 37.5 254.609375 C 37.5 254.875 37.40625 255.101562 37.21875 255.289062 C 37.027344 255.480469 36.800781 255.574219 36.535156 255.574219 L 35.902344 255.574219 C 35.636719 255.574219 35.410156 255.480469 35.21875 255.289062 C 35.03125 255.101562 34.9375 254.875 34.9375 254.609375 L 34.9375 245.597656 C 34.9375 245.332031 35.03125 245.105469 35.21875 244.914062 C 35.410156 244.726562 35.636719 244.632812 35.902344 244.632812 L 36.535156 244.632812 C 36.800781 244.632812 37.027344 244.726562 37.21875 244.914062 C 37.40625 245.105469 37.5 245.332031 37.5 245.597656 L 37.5 245.988281 C 38.027344 245.761719 38.578125 245.652344 39.152344 245.648438 C 39.503906 245.652344 39.855469 245.683594 40.203125 245.753906 C 40.546875 245.824219 40.886719 245.925781 41.210938 246.0625 C 41.539062 246.199219 41.847656 246.363281 42.140625 246.558594 C 42.4375 246.757812 42.707031 246.980469 42.957031 247.230469 C 43.207031 247.480469 43.433594 247.75 43.628906 248.046875 C 43.824219 248.339844 43.992188 248.648438 44.125 248.976562 C 44.261719 249.304688 44.363281 249.640625 44.433594 249.988281 C 44.503906 250.332031 44.539062 250.683594 44.539062 251.039062 L 44.539062 254.609375 C 44.539062 254.875 44.441406 255.101562 44.253906 255.292969 C 44.066406 255.480469 43.839844 255.574219 43.570312 255.574219 Z M 39.769531 248.324219 C 40.992188 248.324219 42.320312 249.089844 42.441406 250.808594 C 42.445312 250.882812 42.449219 250.960938 42.449219 251.039062 L 42.449219 254.609375 C 42.449219 254.746094 42.496094 254.859375 42.59375 254.957031 C 42.6875 255.050781 42.804688 255.101562 42.941406 255.101562 L 43.570312 255.101562 C 43.707031 255.101562 43.824219 255.050781 43.917969 254.957031 C 44.015625 254.859375 44.0625 254.746094 44.0625 254.609375 L 44.0625 251.039062 C 44.0625 250.714844 44.03125 250.394531 43.96875 250.078125 C 43.90625 249.761719 43.8125 249.457031 43.6875 249.160156 C 43.5625 248.859375 43.414062 248.578125 43.234375 248.308594 C 43.054688 248.042969 42.851562 247.792969 42.621094 247.566406 C 42.394531 247.335938 42.148438 247.132812 41.878906 246.953125 C 41.609375 246.777344 41.328125 246.625 41.03125 246.5 C 40.730469 246.378906 40.425781 246.285156 40.109375 246.21875 C 39.792969 246.15625 39.472656 246.125 39.152344 246.125 C 38.523438 246.125 37.929688 246.273438 37.375 246.574219 C 37.296875 246.617188 37.21875 246.613281 37.140625 246.570312 C 37.066406 246.523438 37.027344 246.457031 37.027344 246.367188 L 37.027344 245.597656 C 37.027344 245.460938 36.976562 245.347656 36.882812 245.25 C 36.785156 245.15625 36.671875 245.105469 36.535156 245.105469 L 35.902344 245.105469 C 35.765625 245.105469 35.652344 245.15625 35.554688 245.25 C 35.460938 245.347656 35.410156 245.460938 35.410156 245.597656 L 35.410156 254.609375 C 35.410156 254.746094 35.460938 254.859375 35.554688 254.957031 C 35.652344 255.050781 35.765625 255.101562 35.902344 255.101562 L 36.535156 255.101562 C 36.671875 255.101562 36.785156 255.050781 36.882812 254.957031 C 36.976562 254.859375 37.027344 254.746094 37.027344 254.609375 L 37.027344 251.039062 C 37.027344 250.230469 37.3125 249.542969 37.851562 249.042969 C 38.371094 248.582031 38.976562 248.339844 39.667969 248.324219 C 39.703125 248.324219 39.734375 248.324219 39.769531 248.324219 Z M 39.769531 248.324219 " fill-opacity="1" fill-rule="nonzero"/><path fill="#000000" d="M 31.789062 243.574219 C 31.578125 243.574219 31.375 243.53125 31.179688 243.449219 C 30.984375 243.371094 30.8125 243.253906 30.664062 243.105469 C 30.511719 242.957031 30.398438 242.785156 30.316406 242.589844 C 30.238281 242.394531 30.195312 242.191406 30.195312 241.980469 C 30.195312 241.769531 30.238281 241.566406 30.316406 241.371094 C 30.398438 241.175781 30.511719 241.003906 30.664062 240.855469 C 30.8125 240.707031 30.984375 240.589844 31.179688 240.511719 C 31.375 240.429688 31.578125 240.390625 31.789062 240.390625 C 32 240.390625 32.203125 240.429688 32.398438 240.511719 C 32.59375 240.589844 32.765625 240.707031 32.914062 240.855469 C 33.0625 241.003906 33.179688 241.175781 33.257812 241.371094 C 33.339844 241.566406 33.378906 241.769531 33.378906 241.980469 C 33.378906 242.191406 33.339844 242.394531 33.257812 242.589844 C 33.175781 242.785156 33.0625 242.957031 32.914062 243.105469 C 32.765625 243.253906 32.59375 243.371094 32.398438 243.449219 C 32.203125 243.53125 32 243.570312 31.789062 243.574219 Z M 31.789062 240.863281 C 31.640625 240.863281 31.496094 240.890625 31.359375 240.949219 C 31.222656 241.003906 31.101562 241.085938 31 241.191406 C 30.894531 241.296875 30.8125 241.417969 30.757812 241.554688 C 30.699219 241.691406 30.671875 241.832031 30.671875 241.980469 C 30.671875 242.128906 30.699219 242.269531 30.757812 242.40625 C 30.8125 242.542969 30.894531 242.664062 31 242.769531 C 31.101562 242.875 31.222656 242.957031 31.359375 243.011719 C 31.496094 243.070312 31.640625 243.097656 31.789062 243.097656 C 31.9375 243.097656 32.078125 243.070312 32.214844 243.011719 C 32.351562 242.957031 32.472656 242.875 32.578125 242.769531 C 32.683594 242.664062 32.761719 242.542969 32.820312 242.40625 C 32.875 242.269531 32.90625 242.128906 32.90625 241.980469 C 32.90625 241.832031 32.875 241.691406 32.820312 241.554688 C 32.761719 241.417969 32.683594 241.296875 32.578125 241.191406 C 32.472656 241.085938 32.351562 241.007812 32.214844 240.949219 C 32.078125 240.890625 31.9375 240.863281 31.789062 240.863281 Z M 31.789062 240.863281 " fill-opacity="1" fill-rule="nonzero"/><path fill="#000000" d="M 187.5 0.113281 C 184.429688 0.117188 181.363281 0.195312 178.296875 0.347656 C 175.230469 0.503906 172.167969 0.730469 169.113281 1.035156 C 166.058594 1.339844 163.015625 1.71875 159.976562 2.171875 C 156.941406 2.625 153.917969 3.152344 150.90625 3.753906 C 147.898438 4.355469 144.902344 5.03125 141.925781 5.777344 C 138.949219 6.527344 135.992188 7.347656 133.054688 8.238281 C 130.117188 9.132812 127.203125 10.097656 124.316406 11.132812 C 121.425781 12.167969 118.5625 13.277344 115.726562 14.453125 C 112.890625 15.628906 110.085938 16.875 107.3125 18.1875 C 104.535156 19.5 101.796875 20.882812 99.089844 22.328125 C 96.382812 23.777344 93.714844 25.292969 91.082031 26.871094 C 88.449219 28.449219 85.855469 30.09375 83.304688 31.796875 C 80.75 33.503906 78.242188 35.273438 75.777344 37.101562 C 73.3125 38.929688 70.894531 40.816406 68.519531 42.765625 C 66.148438 44.714844 63.824219 46.71875 61.550781 48.777344 C 59.273438 50.839844 57.050781 52.957031 54.882812 55.128906 C 52.710938 57.296875 50.59375 59.519531 48.53125 61.792969 C 46.46875 64.070312 44.464844 66.390625 42.519531 68.765625 C 40.570312 71.136719 38.679688 73.554688 36.851562 76.019531 C 35.023438 78.484375 33.253906 80.992188 31.550781 83.546875 C 29.84375 86.097656 28.199219 88.6875 26.621094 91.320312 C 25.042969 93.953125 23.527344 96.625 22.078125 99.328125 C 20.632812 102.035156 19.25 104.777344 17.9375 107.550781 C 16.621094 110.324219 15.378906 113.128906 14.199219 115.964844 C 13.023438 118.800781 11.917969 121.660156 10.882812 124.550781 C 9.847656 127.441406 8.882812 130.355469 7.988281 133.289062 C 7.09375 136.226562 6.273438 139.183594 5.527344 142.160156 C 4.777344 145.136719 4.101562 148.132812 3.5 151.140625 C 2.898438 154.152344 2.371094 157.175781 1.917969 160.210938 C 1.464844 163.246094 1.085938 166.292969 0.785156 169.34375 C 0.480469 172.398438 0.25 175.460938 0.0976562 178.527344 C -0.0585938 181.589844 -0.136719 184.660156 -0.140625 187.726562 C 10.167969 436.625 364.867188 436.550781 375.140625 187.726562 C 375.136719 184.65625 375.058594 181.589844 374.90625 178.523438 C 374.75 175.457031 374.519531 172.398438 374.21875 169.34375 C 373.914062 166.289062 373.535156 163.246094 373.082031 160.207031 C 372.628906 157.171875 372.101562 154.148438 371.5 151.140625 C 370.898438 148.128906 370.222656 145.136719 369.476562 142.160156 C 368.726562 139.183594 367.90625 136.226562 367.011719 133.289062 C 366.117188 130.351562 365.15625 127.441406 364.117188 124.550781 C 363.082031 121.660156 361.976562 118.796875 360.800781 115.964844 C 359.625 113.128906 358.378906 110.324219 357.0625 107.550781 C 355.75 104.773438 354.367188 102.035156 352.921875 99.328125 C 351.472656 96.621094 349.957031 93.953125 348.378906 91.320312 C 346.800781 88.6875 345.15625 86.097656 343.449219 83.542969 C 341.746094 80.992188 339.976562 78.484375 338.148438 76.019531 C 336.320312 73.554688 334.429688 71.136719 332.480469 68.761719 C 330.535156 66.390625 328.527344 64.066406 326.46875 61.792969 C 324.40625 59.519531 322.289062 57.296875 320.117188 55.125 C 317.949219 52.957031 315.726562 50.839844 313.449219 48.777344 C 311.175781 46.71875 308.851562 44.710938 306.480469 42.765625 C 304.105469 40.816406 301.6875 38.929688 299.222656 37.101562 C 296.757812 35.269531 294.25 33.503906 291.695312 31.796875 C 289.144531 30.089844 286.550781 28.449219 283.917969 26.871094 C 281.285156 25.292969 278.617188 23.777344 275.910156 22.328125 C 273.203125 20.882812 270.460938 19.5 267.6875 18.1875 C 264.914062 16.871094 262.109375 15.628906 259.273438 14.453125 C 256.4375 13.273438 253.574219 12.167969 250.683594 11.132812 C 247.796875 10.097656 244.882812 9.132812 241.945312 8.238281 C 239.007812 7.347656 236.050781 6.527344 233.074219 5.777344 C 230.097656 5.03125 227.101562 4.355469 224.089844 3.753906 C 221.082031 3.152344 218.058594 2.625 215.023438 2.171875 C 211.984375 1.71875 208.941406 1.339844 205.886719 1.035156 C 202.832031 0.730469 199.769531 0.503906 196.703125 0.347656 C 193.636719 0.195312 190.570312 0.117188 187.5 0.113281 Z M 246.523438 309.207031 C 145.703125 311.40625 57.5 218.347656 65.414062 117.589844 C 63.917969 79.105469 102.78125 58.246094 136.328125 68.308594 C 136.886719 68.460938 137.414062 68.691406 137.90625 68.996094 C 138.398438 69.300781 138.835938 69.671875 139.222656 70.101562 C 139.605469 70.535156 139.925781 71.011719 140.171875 71.535156 C 140.417969 72.058594 140.589844 72.609375 140.675781 73.179688 L 152.90625 150.300781 C 152.59375 159.675781 136.875 164.636719 129.308594 167.015625 C 130.847656 171.527344 132.640625 175.941406 134.683594 180.25 C 136.730469 184.558594 139.011719 188.734375 141.535156 192.785156 C 144.054688 196.832031 146.800781 200.722656 149.765625 204.457031 C 152.734375 208.191406 155.90625 211.742188 159.277344 215.113281 C 162.652344 218.484375 166.207031 221.652344 169.941406 224.617188 C 173.679688 227.582031 177.570312 230.324219 181.621094 232.84375 C 185.671875 235.363281 189.851562 237.644531 194.160156 239.683594 C 198.472656 241.726562 202.882812 243.515625 207.398438 245.050781 C 209.859375 237.171875 214.660156 221.769531 224.046875 221.4375 L 301.179688 233.65625 C 305.734375 234.027344 306.527344 239.851562 307.800781 243.21875 C 318.804688 281.804688 284.207031 313.898438 246.523438 309.207031 Z M 246.523438 309.207031 " fill-opacity="1" fill-rule="nonzero"/></svg>